/* XPM */
static char *result[] = {
/* columns rows colors chars-per-pixel */
"64 64 66 1 ",
"  c black",
". c #28200C",
"X c #181818",
"o c #302410",
"O c #2E2B22",
"+ c #483818",
"@ c #382C14",
"# c #403018",
"$ c #4C4436",
"% c gray22",
"& c #343434",
"* c #524A42",
"= c #685D4C",
"- c #6C4824",
"; c #543C1C",
": c #313929",
"> c #5C4020",
", c #5E5246",
"< c gray19",
"1 c #FCA85C",
"2 c #CC6000",
"3 c #FCF400",
"4 c gray11",
"5 c #FCFCD8",
"6 c #202020",
"7 c #9C4C00",
"8 c #744C28",
"9 c #282828",
"0 c #880000",
"q c #700000",
"w c #640000",
"e c #580000",
"r c #7C0000",
"t c #980000",
"y c #989898",
"u c gray66",
"i c #7C7C7C",
"p c gray44",
"a c #4C0000",
"s c #A40000",
"d c #A80000",
"f c #B00000",
"g c #BC0000",
"h c #C0C0C0",
"j c #C80000",
"k c #D0D0D0",
"l c #2C2C2C",
"z c gray25",
"x c #D40000",
"c c gainsboro",
"v c #ECECEC",
"b c #4C4C4C",
"n c #484848",
"m c #EC0000",
"M c #E00000",
"N c gray99",
"B c gray33",
"V c #FC0000",
"C c #FC2020",
"Z c #B4B4B4",
"A c #400000",
"S c gray55",
"D c gray36",
"F c #646464",
"G c #FC8820",
"H c white",
/* pixels */
"  ...X.. ....   X.oO+Ooo@#$%&OoXX#$**%$&&o.$*$&*==&O.XX.-*&&+;O.",
" ..#@o@#oooo.X  .@&:$#O###;%OooXX#*$$$$$%OO$$$%$**&O.XX.>$&&+;@.",
".O;$,*,$$&&<O.  o;>%$&&%<$-%O..X O$$$$;$#OO$+#+#++#O.X X#&$&&&o.",
"o%::$$;$>;O@OoX .$*>;>$$--;&OO.  O$&&#+##@@O#+&&&&&O.   .O<OOO<X",
"o+12$$$$>+OOOo  o+$##+$$;>#OOOo  X#OO@@@oooo@@OOOOO.X   XXXX.oo ",
"o$32:$$$$+OOo.  X4O#>#OO&+OOOo.                  X              ",
"&$32+$%$$;OOOoX O::O.O+#O##OO..X  .  .......       .X.X .       ",
"&5512:$#$+OOOoX X6<$:@;#O#&<o..  Xo.o@ooOOOoXX  XX.oo@o.OXXXXXX ",
"#$57:;+&$&OOo.X  o8*$&$$$&&<o..XXO&,,,$##&&OOOX ..#+$$#+&&&<oX. ",
"@% -:++:9@XX..   o$%:::::99XX..  X9$*$:@o99oXX. ..o#::@@999X  .X",
"o<  0qqwwwwqwweeeeewwwwwqr00ty u   i pqr00t0rrrqqqqqrrrrrrrrra..",
".@3 0errqqrrrr00000000000ttsdu u   i p00tsddsttt0ttttt000rqqqa6o",
"..37 et y   y sdffdssssdfffggh h   u ytsfggggffddffffdstt0rrrw9.",
"  37 r f h h f gjjggggggjjjjjk k   h hfggjjjjjjjjjjjjgfdsttttqoX",
" X37ltk jz lj kxxxxxxxxxxxxxxc c   k kjxxxxxxxxxxxxxxjjgggfff0. ",
"..37lg vpp bnv mmmmmmmmmmmmmmv v   v vmmmmmmmmmmmmmmmmmmMMMMMg.X",
".O37lg         mmmmmmmmmmmmmmv v   v vmmmmmmmmmmmmmmmmmmmmmmmjo.",
"o#37lx Nip BnN VVVVVVVVVVVVVVN NNNNN NVVVVVVVVVVVVVVVVVVVVVVVM..",
"o$37ljN Vp nV NVVVVVVVVVVVVCNNN     NNNCVVVVVVVVVVVVVVVVVVVVVx..",
"#$37ld m v c M MmmmmmMMMMmvv           vvmmmmmmmmmmmmmmmmmmmmjX.",
"#,37lrg c   k gjjjjjjgggkk    ccccccc    ccxxxxxxxxxxxxxxxjjgt..",
"#>37lwdggggffffgggggfdsZ    kk       kk    kjjjjjjjjjjjjjjgfdrX.",
"@-37latsffffddffggffsty   Zh  hhhhhhh  uh   hggggggggggfffdstqX.",
"#$37lA0ttdfddddffffdtS   y  uuuuuDuuuuu  u   uffddddsssttt00raX.",
"#>37lAr0tsdddddddddsty  y  uuuuu9 9uuuuu  u  usttttt00r00rrqwa..",
"o>37lAr0tsddddddddddu  y  uuuuu9   Buuuuu  u  yt00rrqqqqqqweeao.",
"#$37lettdfffffffffffu  u uuuuul    uuuuuuy u  yt00rrqwwqqwwwqao.",
"o$37lqdfgggggggggggh  h hhhhh%    hh %hhhhh h  utt00rrr00rrr0wX.",
"o#37lShkkkkkkkkkkkkk  k kkkkn   4kkz  nkkkk k  hZZuuuuuuZuuuuy..",
"o<37l              c c ccccc9   Fcb    Bcccc c k              . ",
".o37lSkkccccccccccc  c cccSccB   l      Dccc c  kkkkkkkkkkkkku  ",
"..37l             v  v vvF %vvD     i%   Fvv v  v               ",
"  37l             v  v vy   %vv<   <vv%   yv v  v               ",
"XX37l             v  v vvp   zi     Fvvz pvv v  v             . ",
".o37lhvvvvvvvvccccc  v vvvp      %   Fvvyvvv v  vvvvvvvvvvvvvc. ",
".O37l              v v vvvvp    Fvi   zvvvvv v v              . ",
"o$37lhvvvvvvvvcccccv  v vvvvp  Fvvz   pvvvv v  vvvvvvvvvvvvvvk..",
"#$37ltjxxxxxjjgggggk  c cccccB9cc9   Bccccc c  cxxxxxxxxxxjjgt. ",
"#$37lrfgjjjjggfffffgk  k kkkkkkk4   nkkkkk k  kjjjjjjjjjjjgfdr..",
"o$37lesdfggggffdddffh  h  hhhhhF   %hhhhh  h  hggggggggggfdstq..",
"#;37lAttdfffffdddddffu  u  uuuuul luuuuS  u  ufffffffffffdst0eX ",
"#>37lAr0tsdddddddddddu   u  yyuuuBuuuyy  y   udddddddddddstt0q..",
"#$37lAr0ttsdddddddddddu   yy  yyuuuuy  SS   udddddddddddddst0q.X",
"&>37lAqr0ttsdddddddddddu    SS       Si    ysdddddddddddddst0q  ",
"@>37lAqqr0tsdddddddddddduy    iSyuuyy    iStsddddddddddddstt0q  ",
"O$37lArr0ttdffffffffffffdtyS           ii0ttdffffffffffffdst0e  ",
"#$37letttsdfggggggggggggfdstyyy     Zuutttsfgggggggggggggfdstq  ",
"o$37lrddffgjjjjjjjjjjjjjjgffdZ hhkkk hffffggjjjjjjjjjjjjjjgfdr..",
"@;37ltjjjjxxxxxxxxxxxxxxxxjjjv v   v vjjjjxxxxxxxxxxxxxxxxjjgt..",
"#>37lfxxMMMMMMMMMMMMMMMMMMMMxv v   v vMMMMMMMMMMMMMMMMMMMMMxft..",
"#;37 gMMMMMMMMMMMMMMMMMMMMMMMv v   v vMMMMMMMMMMMMMMMMMMMxgggr..",
"o#37 mmmmmmmmmmmmmmmmmMMmmmmmv v   v vmmmmmmmmmmmmmmmmMMxjgffr.X",
"o&3 MVVVVVVVVVVVmmmmMxxxxMMVVN N   N NVVVVVVVVVVVVVVVmMjjgfddr. ",
"o%3 xVVVVVVVVVVVVVmmMMjgggjxVN N   N NVVVVVVVVVVVVVVmMMxjgdsst  ",
"@+  jmmmmmmmmmmMMMMxjdttsdgjxc k   v vmmmmmmmMMMMMMMmmxjgs0r0q  ",
"@+ -o+;;+#ooXXX  X.#O#OO@##O...  X.                             ",
"o$G7o++;#<OOoX.    X XX          XX6ooOo#oo@oo.XXo.X    XoOo..  ",
"o553G&+&&<#OO..   X ..  ...      o#++$;#&##&##&##<OoX   O#$&OO. ",
".+52o&+%&#@OO.. XX..ooX.oooXXX   O+;;$;+&++&%+%;;#OOX  XO$$&&&o ",
".+32%;&;+##OO6  .o#;;#&&#%+OO.. X#;$$&+;#&&#$+;*,$&OX X.;$;#&&O ",
".O12=,,,#+&&<.  .@;,$&++#++<O..XX#*$$++++&&#-++$$*$O. X.>&%$&&&.",
".O$,,,,,$+&&<o  .#>,$###+#+&OooXX#,$$;++>%&%>;+;$$$<o X.$%%$&&&.",
"...@@oO$+o.o..  .#-,$;O#+O#$OOoXX#,,*$;;$%&$>>;++&O<. X.$,$#++&X",
"                .#$$%@OOO6O&<OoXX#,,,$;+&&&+*;$$$-<Oo X.**%##&&."
};
