/* XPM */
static char *result[] = {
/* columns rows colors chars-per-pixel */
"64 64 39 1 ",
"  c gray11",
". c #484848",
"X c gray22",
"o c #000064",
"O c #000098",
"+ c #000088",
"@ c #00007C",
"# c #0000A4",
"$ c #646464",
"% c #282828",
"& c #2C2C2C",
"* c #4C4C4C",
"= c #000070",
"- c #0000B0",
"; c #5C60FC",
": c #7C80FC",
"> c #585400",
", c #706C00",
"< c #FCB400",
"1 c #404000",
"2 c #CCC400",
"3 c #9C9C00",
"4 c #FCC008",
"5 c #FCE034",
"6 c #B4AC00",
"7 c #848400",
"8 c #FCD424",
"9 c #400000",
"0 c #980000",
"q c #B00000",
"w c #C80000",
"e c #4C0000",
"r c #483818",
"t c #FCF400",
"y c #28200C",
"u c #E4D800",
"i c #403018",
"p c gray36",
"a c white",
/* pixels */
" ....XoO+++@++++++OO+OO#####O###O+++++++$..... %&&&&&&&&&&&&&&&%",
" ..*.X=OO+@@+OOO++++++OO#########O++++++$....*                 %",
" .*.*X=O+@@@+OOO++++OO#OO########OO++++O$.....*..**......*..*. %",
" *...X=O++++OOOOO++OOOOOOO#######OO++@++$.*.......*.....*..... %",
" ....X=OOOOOOOOOO+OOO++++OO###-###O++++O$..*..*..........*.... %",
" ...*X=###OOOOO##OOOO++++OO##--##OOO+++O$.*....*..........*... %",
" ..**X=###O######OO++++++OO#----##OO+++O$$$$$$$$$$$$$$$$$$.... %",
" ....X=###########O+++++++O##----#O+++OOOO#--#O+++++++O##$.... %",
" ....X=O#########O++@++++OOO##---#OOO++OO####O++@++++OOO#$..** %",
" ....X=OO##O####OO+++OOOO+OO#----##OOOO+O###OO+++OOOO+OO#$.*.. %",
" ....X=O+;;;;;;;;;;;;;;;;;;;;;;;;;;;;;;;;;;;;;;;;;;;;;;:#$..*. %",
" .*..X=O=&&&&&&&&&&&&&&&&&&&&&&&&&&&&&&&&&&&&&&&&&&&&&&:O$...* %",
" *.*.X=+=&&&&&&&&&&&&&&&&&&&&&&&&&&&&&&&&&&&&&&&&&&&&&&:O$.*.. %",
" .*..X=+=&&&&&&&&&&&&&&&&&&&&&&&&&&&&&&&&&&&&&&&&&&&&&&:O$*... %",
" *...X=+=&&&&&&&&>&&&&&&&&&&&&&&&&&&&&&&&&&&&&&&&&&&&&&:O$.... %",
" ..*.X=+=&&&&&&&,<112222222222122222222222222223&&&&&&&:O$*... %",
" ...*X=+=&&&&&&,<414444444444414444444444444443&&&&&&&&:O$.*.. %",
" ....X=+=&&&&&,<413555555555515555555555555553&&&&&&&&&:O$*..* %",
" ...*X=+=&&&&2<46>111111111117111111111111111&&&&&&&&&&:O$.*.. %",
" ..*.X=@=&&&&8461763>222222222222222222222223&&&&&&&&&&:O$..*. %",
" ...*X=@=&&&&841715>135555555555555555555553&&&&&&&&&&&:+$.*.. %",
" ..*.X=+=&&&&84>8<1561111111111111111111111&&&&&&&&&&&&:+$.... %",
" .*..Xo+=&&&&841<181>3172222222222222222223&&&&&&&&&&&&:+$...* %",
" ..*.Xo+=&&&&2<41<18513>355555555555555553&&9&&&&&&&&&&:+$.... %",
" ....XoO=&&&&&3<41<1>51111111111111111111&&909&&&&&&&&&:+$.*.. %",
" ....XoO=&&&&&&3<41<8>3>7555555555555553&&90qw9&&&&&&&&:O$*.*. %",
" ....Xo#=&&&&&&&3<41<1311&11111&&&&&&&&&>90qwe&9&&&&&&&:O$.... %",
" ..*.Xo#=&&&&&&&&3<>1<r<1&>>>>>>>>>>1&&>2>qwe&909&&&&&&:+$.... %",
" .*.*XoO=&&&&&&&&&>1<1<>>>766617661611>2t>0e&90q09&&&&&:+$*..* %",
" *...X=+=&&y>,,>&1<81<1531uuu1uuu1uuuu2t>0q090qwq09&&&&:+$**.. %",
" ....X=+=&&>5<5<<<15>631511113151751111>&ewq0qwewq09&&&:+$.... %",
" ...*X=+=&&,858448315<5<1766666>666661109&ewqw9&ewqq9&&:+$.... %",
" ..**X=+=&&,i858841511<><1<t5>>1uu5uu>>q090qwq09&ewe&&&:+$.... %",
" ....X=+=&&>55211>81<51<5t>>>256>5t1>t2>q0qwewq09&9&&&&:@$...* %",
" ....X=+=&&162&&&1381<>53>uuu1uuu>uuu>t2>qwe&9wqw9&&&&&:+$.... %",
" ....Xo+=&&&1>,&&&>1<1<>>155571t11>>>>>t2>e&90qwe&&&&&&:@$.*.. %",
" ....Xo+=&&&&&&&&,<>1<1<1&>>>>>>1&&&&&&>>>&90qwe&&&&&&&:+$*.*. %",
" ....Xo+=&&&&&&&,<41<161>&11111&&&&&&&&&&&90qwe&&&&&&&&:+$...* %",
" ..*.Xo+=&&&&&&,<41<8>2>7222222222222223&&&ewe&&&&&&&&&:+$.... %",
" .*.*Xo+=&&&&&,<41<>>5>111111111111111111&&&9&&&&&&&&&&:O$*..* %",
" *...Xo+=&&&&2<41<>85>31322222222222222223&&&&&&&&&&&&&:O$**.. %",
" ....X=+=&&&&841<>8>>3175555555555555555553&&&&&&&&&&&&:O$...* %",
" ...*Xo+=&&&&84>8<>86r111111111111111111111&&&&&&&&&&&&:#$.... %",
" ..**XoO=&&&&84>7><>132222222222222222222223&&&&&&&&&&&:O$.... %",
" ....X=#=&&&&846>78<>555555555555555555555553&&&&&&&&&&:O$.... %",
" ....XoO=&&&&6<46>111111111117111111111111111&&&&&&&&&&:O$..** %",
" ....X=O=&&&&&3<413222222222212222222222222223&&&&&&&&&:O$.*.. %",
" ....X=O=&&&&&&3<414444444444414444444444444443&&&&&&&&:O$..*. %",
" .*..X=+=&&&&&&&3<112555555555155555555555555553&&&&&&&:O$...* %",
" *.*.Xo+=&&&&&&&&>&&&&&&&&&&&&&&&&&&&&&&&&&&&&&&&&&&&&&:+$.*.. %",
" .*..Xo+=&&&&&&&&&&&&&&&&&&&&&&&&&&&&&&&&&&&&&&&&&&&&&&:O$*... %",
" *...XoO=&&&&&&&&&&&&&&&&&&&&&&&&&&&&&&&&&&&&&&&&&&&&&&:O$.... %",
" ..*.XoO=&&&&&&&&&&&&&&&&&&&&&&&&&&&&&&&&&&&&&&&&&&&&&&:#$*... %",
" ...*Xo+===============================================+#$.*.. %",
" ....XoO++O+++++O######----##O++OOOOO+O+@@@++OOOO###---##$*..* %",
" ...*XoOOOOO++++OOO####----#O++++OOOO++@@@+++OOO####---#O$.*.. %",
" ..*.Xo####OO+++OOOO###---###+++++OO++@@++++OOOO###---###p..*. %",
" ...*X=####OOO++++OO###---#OOO++++O++@@+.XXXXXXXXXXXXXXXXX.*.. %",
" ..*.X=OOOO##O++O+OO####-##OOOO+++++++++$*...*.*........*..... %",
" .*..X=OOOO##OO+++++#######OOOOO+@@+++++$.....*.*........*.... %",
" ..*.X=+OO#OOOO+++++O#######OOO+@@++++++$...**.*.....*....*... %",
" ....Xo++OOOO+++++++OO########O+@++++O++$*.*.........**..*.... %",
" ....Xo+++OO++++++++OO#######OOO++++++OO$.*...&$$$$$$$$$$$$$$$X%",
" ....XoO+++OO++++O+OOO#######OOOOO++++OO$..... %&&&&&&&&&&&&&&&&"
};
