/* XPM */
static char *result[] = {
/* columns rows colors chars-per-pixel */
"64 64 38 1 ",
"  c black",
". c #28200C",
"X c #181818",
"o c #302410",
"O c #2E2B22",
"+ c #483818",
"@ c #382C14",
"# c #403018",
"$ c #4C4436",
"% c gray22",
"& c #343434",
"* c #524A42",
"= c #685D4C",
"- c #6C4824",
"; c #543C1C",
": c #313929",
"> c #5C4020",
", c #5E5246",
"< c gray19",
"1 c #282828",
"2 c #885830",
"3 c gray66",
"4 c #D0D0D0",
"5 c #C0C0C0",
"6 c gainsboro",
"7 c #ECECEC",
"8 c #202020",
"9 c #989898",
"0 c gray55",
"q c #7C7C7C",
"w c gray44",
"e c gray33",
"r c #484848",
"t c gray36",
"y c #646464",
"u c #4C4C4C",
"i c gray25",
"p c white",
/* pixels */
"  ...X.. ....   X.oO+Ooo@#$%&OoXX#$**%$&&o.$*$&*==&O.XX.-*&&+;O.",
" ..#@o@#oooo.X  .@&:$#O###;%OooXX#*$$$$$%OO$$$%$**&O.XX.>$&&+;@.",
".O;$,*,$$&&<O.  o;>%$&&%<$-%O..X O$$$$;$#OO$+#+#++#O.X X#&$&&&o.",
"o%$$,$;$>;O@OoX .$*>;>$$--;&OO.  O$&&#+##@@O#+&&&&&O.   .O<OOO<X",
"o+$*,$$$>+OOOo  o+$##+$$;>#OOOo  X#OO@@@oooo@@OOOOO.X   XXXX.oo ",
"o$%$:::::@XX..   XXo+oXX1@XXX..                                 ",
"&$############################################################  ",
"&;2>>>>>>>>>>>>>>>>>>>>>>>>>>>>>>>>>>>>>>>>>>>>>>>>>>>>>>>>>>#  ",
"#$2>#2222222222222222222222222222222222222222222222222222222>#. ",
"@%2>#3445444444446646666666666666666666676677777776766777772>#.X",
"o<2>#3444544444444646666666666666666666666666777747776777772>#..",
".@2>#3554444444446666666666666666666666666666777657774777772>#8o",
"..2>#3555444444446666666666666666666666666666777567766777772>#1.",
"  2>#3555444444446664666666666666666666666667777577777777772>#oX",
" X2>#3554444444446646666666666666666666666667777477677777772>#. ",
"..2>#3555444444444444666666666666666666666667775499546777772>#.X",
".O2>#3555544444444664666666666666666666666667763900093466662>#o.",
"o#2>#355554444444444464666666666666666666667769q000933333552>#..",
"o$2>#35555444444444444664393566666666666666770www99993356772>#..",
"#$2>#35555554454444446669ewwww03666666666764ww00wwq933554672>#X.",
"#,2>#355554444444430q0000rtqqwy095666666773twwqww00q03356772>#..",
"#>2>#355555444450ur%%iiireueeteyww46666673utywwttwwq93356772>#X.",
"@-2>#355544443w%iiiiiywwttttteuteew035464qttettwywtw93556772>#X.",
"#$2>#3555445y%<i%%iewqtwqqwyeeeeuuueeutyq9575qtttqqwww935672>#X.",
"#>2>#355444w%%<i%%wtrutwq9900wwwwtytyeeytq367740tty093395672>#..",
"o>2>#35444w<%%<<%eu%ywyttq9300qqwwqwwwwwtr05677740wtw3333672>#o.",
"#$2>#35440<%<<%<%iiwwwwuuuw330qwwwwqwwyttir067777769wq347772>#o.",
"o$2>#3543i%%i<%<<iq0099euiyq3309qwwqqwwwwerr3777777769956772>#X.",
"o#2>#355e<%<<%<<%w90099uiweq03990wq990q00wuir377777777534772>#..",
"o<2>#359<<<<<<<<uq0qq90r<ewqq9990q0930wwqqwi%u47777777765562>#. ",
".o2>#35e<<<<<<<<w00q09qriwq0q999999q9t09qqqeii07777777766662>#  ",
"..2>#35%<<<<<<<rq00039wiu9000390rteiye930q0wuiu5777774467772>#  ",
"  2>#33<ii<i%<<w0qq093wiry9qqqeee%i%it09q090tiey677793777502>#  ",
"XX2>#39<%%%ii<iw0qqq09wiiewwwruei<%%itwqy099wrer376q3663yew2>#. ",
".o2>#39<<%%ri<uq00qq90wrruwwyeutt%<%ruqww939qruiu9eiiyew0032>#. ",
".O2>#33<<<%u%%yq00qq090tq33333390iiiie0tw039qreiiiiiirtq9902>#. ",
"o$2>#33<<<<i<iwq00qq00qyw99999009iii%iq0q939qeerruiiirrw0902>#..",
"#$2>#35<<<<%<iwq0qqq990yeeq90qw0q%i%%iw93999yqetw663wrry0932>#. ",
"#$2>#34e<<<<<uwqqqqq090t%rww090q009eyqy3339qtwy037777430tq02>#..",
"o$2>#349<<<<<ewq000q990w%rwyw03390093303390tyw9q777777776532>#..",
"#;2>#355r<<<<twqqq00090wirryww093990933330qw9906775399993332>#X ",
"#>2>#3443<<<iwwqqq000930urtw00000090993999w939450www09333352>#..",
"#$2>#35550<<iywwwqqq0999uiewqq9qww000099934677776000q0933332>#.X",
"&>2>#355540irtwwqqqqq090re%tq00wwwq0993577667777779q00933332>#  ",
"@>2>#3555445eitwqqqwwqq0wtw090wwwwqq3667777777777779q0933332>#  ",
"O$2>#35555445t<itwqwwwwwq090wwteyq0q6766777677777777q0933332>#  ",
"#$2>#3555544449wiiuuuetttwwwwyq03566667677767777777790933332>#  ",
"o$2>#3555554444453qeiutw946quw34666666667676777777773w333332>#..",
"@;2>#3555555554444444466666555666666666766667777767730533332>#..",
"#>2>#3555555454444444466666666666666666667667777676753643332>#..",
"#;2>#3555555444444444466666666666666666777767676677749576532>#..",
"o#2>#3555555544444444444466666666666666676666666677763566662>#.X",
"o&2>#3555555555444444444464666666666666666666666666665366662>#. ",
"o%2>#3555555555444444444466664666666666666666666666666456662>#  ",
"@+2>#3333333333333333333335355555555555555555555555555535552>#  ",
"@+2>########################################################>#  ",
"o$2>>>>>>>>>>>>>>>>>>>>>>>>>>>>>>>>>>>>>>>>>>>>>>>>>>>>>>>>>>#  ",
"o;222222222222222222222222222222222222222222222222222222222222. ",
".+;$#&+%&#@OO.. XX..ooX.oooXXX   O+;;$;+&++&%+%;;#OOX  XO$$&&&o ",
".+$,*;&;+##OO8  .o#;;#&&#%+OO.. X#;$$&+;#&&#$+;*,$&OX X.;$;#&&O ",
".O$==,,,#+&&<.  .@;,$&++#++<O..XX#*$$++++&&#-++$$*$O. X.>&%$&&&.",
".O$,,,,,$+&&<o  .#>,$###+#+&OooXX#,$$;++>%&%>;+;$$$<o X.$%%$&&&.",
"...@@oO$+o.o..  .#-,$;O#+O#$OOoXX#,,*$;;$%&$>>;++&O<. X.$,$#++&X",
"                .#$$%@OOO8O&<OoXX#,,,$;+&&&+*;$$$-<Oo X.**%##&&."
};
