/* XPM */
static char *result[] = {
/* columns rows colors chars-per-pixel */
"64 64 212 2 ",
"   c #E6B99E",
".  c #E5B496",
"X  c #EBAD94",
"o  c #E9A284",
"O  c #ECAA8E",
"+  c #F4B296",
"@  c #F3AD93",
"#  c #EBA68B",
"$  c #FAB49A",
"%  c #F1AB8D",
"&  c #F8B196",
"*  c #E4BEA5",
"=  c #CFB499",
"-  c #E6C2A6",
";  c #ECC1A5",
":  c #ECB196",
">  c #F1A78C",
",  c #DEC3AD",
"<  c #A2543B",
"1  c #9C3D29",
"2  c #9B3622",
"3  c #9C3A24",
"4  c #A13C25",
"5  c #9B391E",
"6  c #A24027",
"7  c #933D29",
"8  c #612B17",
"9  c #B1877B",
"0  c #EABA9D",
"q  c #AB775B",
"w  c #96543A",
"e  c #A4593D",
"r  c #9D5136",
"t  c #843A23",
"y  c #AA6146",
"u  c #A45B42",
"i  c #944C33",
"p  c #A25740",
"a  c #9D4E38",
"s  c #A6563B",
"d  c #7C543E",
"f  c #C7A98F",
"g  c #B1785D",
"h  c #9D5441",
"j  c #9E593E",
"k  c #8D4D33",
"l  c #C3A391",
"z  c #F3B99D",
"x  c #9B4E35",
"c  c #953622",
"v  c #9A351E",
"b  c #6A2E1D",
"n  c #B58D81",
"m  c #E4A98E",
"M  c #9D533A",
"N  c #964027",
"B  c #94391F",
"V  c #8C331D",
"C  c #94341E",
"Z  c #953A24",
"A  c #8D3722",
"S  c #9E4026",
"D  c #8B492E",
"F  c #562915",
"G  c #BC927E",
"H  c #E6AE9A",
"J  c #8D3E29",
"K  c #8D422B",
"L  c #532412",
"P  c #B48D7B",
"I  c #ECB39A",
"U  c #A13624",
"Y  c #93422C",
"T  c #632D1B",
"R  c #9C412B",
"E  c #9E3728",
"W  c #A23D29",
"Q  c #8C3B25",
"!  c #B89176",
"~  c #F7BEAA",
"^  c #964E38",
"/  c #BB8D7B",
"(  c #8E4226",
")  c #5D2C1A",
"_  c #B69281",
"`  c #F9AF98",
"'  c #7C331D",
"]  c #BC9482",
"[  c #F2B6A1",
"{  c #C39483",
"}  c #95492E",
"|  c #643321",
" . c #EFB7A0",
".. c #973417",
"X. c #C2937E",
"o. c #632F21",
"O. c #5C301D",
"+. c #944530",
"@. c #5A2615",
"#. c #E5B29A",
"$. c #C39985",
"%. c #FBB99F",
"&. c #63311D",
"*. c #AE917E",
"=. c #5D2518",
"-. c #DBAB94",
";. c #86442B",
":. c #965136",
">. c #BB9A86",
",. c #873D29",
"<. c #692C15",
"1. c #83331D",
"2. c #4C2412",
"3. c #D5A48D",
"4. c #7B3D25",
"5. c #842F19",
"6. c #6C3422",
"7. c #AC8B75",
"8. c #A3412B",
"9. c #7E3621",
"0. c #4C1E0D",
"q. c #894830",
"w. c #C18D7C",
"e. c #D3A58A",
"r. c #693116",
"t. c #9E6145",
"y. c #843521",
"u. c #B3917D",
"i. c #ECBBA2",
"p. c #AE8C7A",
"a. c #D8BCA6",
"s. c #7E5943",
"d. c #69321E",
"f. c #4C210E",
"g. c #552A19",
"h. c #452B1C",
"j. c #BAA28A",
"k. c #5A4031",
"l. c #AFA497",
"z. c #CCA993",
"x. c #A68674",
"c. c #BBA699",
"v. c #CFBAA3",
"b. c #B38A76",
"n. c #CA9685",
"m. c #BB8C76",
"M. c #B79D8D",
"N. c #BEB8A8",
"B. c #DEA58C",
"V. c #F3B49C",
"C. c #EBAF9A",
"Z. c #E3C2AC",
"A. c #E5C9B3",
"S. c #E5AD94",
"D. c #F8B7A1",
"F. c #D6B9A6",
"G. c #A95D44",
"H. c #6F4D34",
"J. c #754D38",
"K. c #EEC2A9",
"L. c #A66D50",
"P. c #9B4330",
"I. c #52230E",
"U. c #E4A58A",
"Y. c #431503",
"T. c #521D0D",
"R. c #F4BBA2",
"E. c #833A1D",
"W. c #DDB99A",
"Q. c #8E2F19",
"!. c #3F1C08",
"~. c #73361C",
"^. c #852D17",
"/. c #5C2B16",
"(. c #461906",
"). c #86492D",
"_. c #FABCA5",
"`. c #8E381F",
"'. c #932F1B",
"]. c #543B2B",
"[. c #C4B2A3",
"{. c #6B3825",
"}. c #B59F91",
"|. c #C89889",
" X c #C99B87",
".X c #C9A998",
"XX c #A34E37",
"oX c #D3B7A2",
"OX c #E2BFAA",
"+X c #E2C5B1",
"@X c #A97457",
"#X c #D2AC97",
"$X c #F5C3A9",
"%X c #A34E3A",
"&X c #864124",
"*X c #4C3525",
"=X c #583C30",
"-X c #B8A493",
";X c #C39C88",
":X c #CDC0AD",
">X c #C5A38E",
",X c #BCAFA6",
"<X c #DCAB94",
"1X c #D6C7B4",
"2X c #7E4027",
"3X c #7E5641",
"4X c #E1A387",
"5X c #AB8573",
"6X c #B28675",
"7X c #7F2A16",
"8X c #BC9D8A",
"9X c white",
/* pixels */
"  . X o O O O + @ @ + # $ @ # @ $ % O @ # % + + & $ % % % O * = - ; : % @ > o % % o % $ & # , , X < 1 2 3 4 4 5 4 6 4 2 2 7 8 9 ",
"0 q w e e e e e r t y u i p < a < s < e e e e u u e a r s w d f - g h p h p a < e e e s e j k l z x c 4 4 v 5 5 5 3 1 v 3 7 b n ",
"m M 7 N c B N B V C 7 7 Z Z c V V c A Z 1 Z 5 S 2 1 S Z 7 D F G H w J 1 c 1 Z 3 Z N S 3 5 K L P I < Z 3 1 4 S 5 5 3 U 3 3 Y T P ",
"# p R 1 3 3 5 C v E C Z Z 2 Z E 2 E 1 1 4 4 6 6 W 4 v S c Q F ! ~ ^ V W E W 5 4 3 E C 1 Z Y 8 / : r 3 5 v 3 4 5 3 3 6 3 3 ( ) _ ",
"` M Z W 1 S c 3 1 c c E 3 R c 3 1 1 E Z 3 5 3 5 3 4 B 6 Y ' L ] [ x Z 4 U U U U 5 6 v 4 4 J T { z } c 4 v v 4 5 3 E 4 3 E 7 | _ ",
"` < 1 6 3 5 3 3 Z 1 3 Z 1 c c 3 Z R Z Z 4 4 5 4 E W 6 5 Z t ) ]  .a Z E v U 4 ..v 3 3 4 6 Y T X.z e Z U 4 U U 6 3 4 4 E 1 Y o._ ",
"& s Z U v 4 4 5 4 4 5 3 3 3 6 3 v E 5 5 4 4 5 5 4 ..4 5 2 7 8 n ~ k V E E E 4 3 3 ..3 3 Z Y O.G I e 5 5 4 4 5 5 U 4 4 5 5 ( ) ! ",
"& < 3 4 U v v U U U 6 v U 4 5 5 4 E E Z 5 5 5 5 6 4 4 4 E +.@./ #.k Q C 3 v v U v 1 6 5 5 Y ) $.%.} N 6 4 4 4 v 5 4 4 5 3 Y &.*.",
"% < 7 4 v 5 6 U 4 4 3 2 2 3 4 4 4 E 3 3 v 5 3 3 W 3 3 1 E Q =./ -.;.} 1 E C 3 U 4 2 2 U 4 } &.$.z :.C W C E v 4 S E E c 6 Y ) >.",
"O :.c 6 E 5 3 U 2 U W E E 2 E 3 2 4 1 1 3 6 4 v E 6 3 Z c ,.=.] -.<.7 Z Z W 3 4 E 3 U 4 2 Y =.G z < c E 2 4 6 3 1 5 6 E C 1.&._ ",
"O < 7 c 5 Z 3 W E E E 1 2 E 4 3 E E 2 c 3 3 3 4 E Z 1 Z Z t 2.>.3.4.5.Z 1 c W E 3 4 U 4 3 Y T G z M Z 1 W E 3 3 3 Z 3 3 5 } 6.7.",
"+ r 7 8.B 5 3 W 4 Z 2 Z Z 3 Z ..c Z Z c 2 2 5 4 8.3 3 B A 9.0.7.-.q.J Z 1 c E Z 2 2 c E 3 7 T w.m x c 3 W c 5 S B 1 E 3 3 J =.] ",
"% M Z 5 3 3 3 3 Z 1 c A 7 Z c c 7 c 7 Z c 3 Z Z R 1 Z S c t O.! e.r.Q c c 3 3 6 1 1 3 1 3 ( &.X.+ M R 3 Z 6 1 5 Z Z 3 3 4 Y 8 / ",
"m t.( A 7 Y Z 7 J +.K t y.9.9.;.( K K ' ' Y J 9.7 Y Q ( Y D 0.u.i.:.Q 7 Z c 3 3 3 3 3 Z B Q =.] 0 D ( R 7 Y Y Y N ( 7 c 3 Q ) p.",
"a.s.8 d.b <.6.T 8 o.) L f.f.2.g.0.f.2.2.g.g.f.0.) ) T 8 b o.h.j.i.M c B Z 3 5 4 5 Z 3 3 5 Y 8 >.a.d ) b b 8 T &.&.d.b T b @.k.l.",
"- z.$.w.X.X.X.w.{ { n ] n P *.p.x.x.p.u.>.>.P >.] / { w.w.g c.v.#.M c 3 c 1 4 5 5 3 3 5 3 x 8 b., z.X.n.n./ m.{ { n.n.w.w.X.M.N.",
"B.X : %.+ V.V.$ C.V. .z m #.Z.Z.A.- -.#.-.-.. #.S.H C.D.X #.F., S.r V 3 2 v U U U U 3 3 Z } T b.- i.z X I z : X X X V.V.$ I S.-.",
"} r r < x < a a < M r i G.M H.f - q 4.9.k j k :.^ Q i < e j J.l : :.Z Z 1 2 U 4 U W E Z c Q @.b.K.L.^ M M :.r M x M r r M i a i ",
"Z Y S 3 Z 1 3 5 E Z P.Q R Q I.] i.w A A 7 R Q A Q A 1 P.1 t | ] [ k ( 1 Z 1 U U 3 4 E B Y t @.G : e 7 7 7 ( c A 7 C 7 C Z Z A A ",
"Z 2 c 1 E E 2 2 E 4 W Z 1 K ) P C.M P.1 7 1 C c 3 2 E 8.2 ,.T G B.t 7 R c 1 3 v E 2 Z c 3 1.@.G : M A B 3 3 V c 2 5 Z Z Z c 2 2 ",
"1 E 3 3 S 3 4 4 4 4 E 1 1 ,.) 7.S.e 1 E Z 1 B 3 E Z 2 5 3 Y L $.C.a c B 3 1 5 5 Z 5 S 3 E A T { U.D V 1 1 A V 7 1 Z c Z Z E 1 Z ",
"U W R 3 Z S 4 U 4 W v c 1 +.L >.~ x Z 8.3 E 5 5 2 3 C c Z 1.Y.P H a 7 2 3 3 B 5 5 B Z 5 E Q b { V.a Q 3 Z 1 3 c 1 v 4 Z Z 4 Z E ",
"U 4 W ..5 5 4 5 4 U 1 W E } T.G R.} V v 4 E v 3 B E C B V E.O.!  .j Z 3 Z 3 S 5 5 1 v 3 3 1.I./ S.a C 2 3 C v 2 v 3 v E W 2 E c ",
"U U W 3 S 5 4 5 5 4 5 4 4 7 Y.] U.E.7 3 2 2 4 v 1 ..E C C k O._ W.k A c 1 3 ..5 4 6 3 4 1 A 0.P V.x Q.2 3 B 6 4 3 2 4 2 4 4 E U ",
"U U 4 E c Z 6 5 U v W Z 2 7 g.{ I y 1 B 3 E 4 4 4 2 W 2 1 y.!.u.-.~.y.c Z E U E 4 2 E W E K F ] z M C E C 1 3 1 3 5 3 4 4 E 3 E ",
"4 E 2 1 1 Z 5 6 U 6 2 E W J | >.. D ^.B 3 B 5 1 4 2 1 W E 9.0.u.-.4.A 7 1 c E 2 1 4 W 4 c J | G I e c E c Z B 3 3 3 2 3 4 E 1 3 ",
"Z Z c c Z Z 6 5 4 E E Z 3 } /.P I D Z S 7 Z Z 4 Z c 2 Z 1 ,.g._   w J 1 R c 4 5 c 5 E 1 S t /.G X a 1 8.1 1 1 B 3 E Z c Z E 4 Z ",
"c 7 c B V c 6 5 U 3 E 1 1 Q (.$.#.D t Z c B c 5 3 3 1 Z Z t 2.u.i.).5.1 Z Z 1 v 5 c B E S } r.G _.x c Z 2 B 2 c 4 2 v 3 3 c 2 1 ",
"Z A c R c B 3 v 4 8.E 3 Z `.I.G : u R c c 2 4 3 1 E E ..c J 2.P   :.Q V Z E '.4 W E 1 1 C Y 8 X.O x 1 E Z B C 3 1 C V B 1 3 3 C ",
"' ' t Y Q Q Y Y 7 Y K K N t ) >.z e B Z W 2 2 5 5 3 6 W W A 0.>.#.4.' Q t +.7 R 7 1 7 7 7 K F ] i.M Y Y J 7 Y Y Q 1 +.} Y 7 J t ",
"=.o.&.T | T | b | T @.F d.&.].[.S.x c v 4 3 5 6 4 3 U 3 3 Q L u.Z.J.F {.{.O.=.T 8 b T ) <./.].}., s.T 6.b T T T d.b T 8 b &.8 I.",
"P / / { |./ / ] { ] G  XX.G c..XS.XX1 2 4 W 5 4 5 4 5 5 3 Q 8 _ , z./ / ] P { w. XX.{ m.m.X.l oXa.z.] / w.w.w.m.w./ { { X./ u.] ",
"OX* C.V._.S.I z S.: : %.O 0 F.Z.X XXU 3 3 5 5 4 3 E E 2 v 7 8 >.*   I %.X : + V.: : z V.X V.I S.: : X X V.$ + X z . m B.m . Z.+X",
"i.@XG.a r < i } ).u e x < w d #XV.XXc Z Z Z 3 4 2 3 1 3 B Y /.] $Xg M < ( y e r < M M j a r a ^ +.+.a a %X%X< i ^ M D ).e w J.l ",
"U.^ A 1 E Z c S 3 Y 7 C S Q =.{ z M B S R E 3 U v 5 4 3 c ,./.$.[ i +.1 c S Z B Z Z B Z 7 3 Z 1 V V c 1 C c N c 7 `.( R 7 y.6.] ",
"@ p Z 2 E E 1 3 Z C B E U 7 b w.X r ( Z Z 6 6 5 U 3 3 3 Z t I.] R.%Xc Z 1 3 3 B 5 3 3 c 5 C C E 4 Z 7 1 3 c Z 3 c E 3 c 2 Q T ] ",
"V.i 1 1 E 4 5 5 3 Z 3 3 3 Q d./ : :.7 1 Z B U U U U 4 4 1 ,.T.m.H h Z E 1 5 1 1 E Z 1 3 c 3 1 3 E 3 7 Z 7 c B C 2 E Z E 3 Q /.p.",
"U.a 1 2 2 4 6 3 3 S 5 3 3 ( 8 / : i V 3 Z C v 4 4 U 4 4 2 Q L 9 C.a 1 2 4 v 4 3 5 v Z 1 Z 4 6 3 3 R S B 7 N S 5 E E 2 1 3 Q &.9 ",
"# e B 3 W E U 3 5 v 3 6 B Y /.G I < Z C ..5 4 ..4 3 4 3 C Q ) / R.x 3 6 v 6 v 5 4 4 4 4 4 4 3 5 5 4 5 B 5 5 5 4 v E 4 3 3 7 T 7.",
"X } Z 4 2 4 U 4 4 4 3 U ..( &.G _.:.`.Z 6 6 4 5 B v W 3 V K o.] H Y v 3 4 U v U U U 3 4 6 4 5 4 3 v 5 5 4 4 4 5 4 4 E C B Q 8 ] ",
"@ a Z W 2 U 4 4 3 E 4 2 5 } =.X.V.< c 1 1 Z 4 1 B 3 1 c c ^ =.m.m } Z 2 2 4 v v E 4 E B E Z v 4 W 3 3 v 4 5 4 6 E 2 E W S Q d._ ",
"X a c 2 2 E U v E 2 2 2 c Y F >.R.a A c 1 E C U 3 c R Z c ,.L / V.e 7 E 4 ..4 v E E 1 R 1 E c 3 4 4 2 3 3 W 3 v 4 c c Z V K ) p.",
"O :.Z W E 1 4 4 4 E 3 3 3 K f.G C.e 7 1 8.2 3 6 3 c 7 Q `.' F >.X a 7 E 6 3 1 4 c c 1 1 1 2 Z Z '.2 Z 1 B 1 3 3 3 W W 3 3 K ) u.",
"U.x c Z Z Z E Z 3 3 E 1 R Y L _ ; D 5.2 E 1 v 6 3 c c c V E./.>.R.} c B 1 B R c c c c Z A Z E 3 E c 1 c c V 3 Z 3 1 c C R t &.u.",
"O < 6 W Z B 5 4 3 1 E 2 Z Q 2.! m E.`.1 Z 6 E 3 1 Z c Z B ( /.$.: E.R 3 C Z B 7 A Z Z 7 S 7 c B 1 Z C V 7 c B S 3 c C 5 B Q &.! ",
"+ < Z E 1 3 5 5 4 4 U v v J F P   k y.+.Y 7 R V J Y y.t ( D F ! S.k Q } J K } E.,.t ~.' y.t J ( ' t K K ,.7 t 1.K +.Y K V &XF 7.",
"% < B 3 3 c 3 3 3 E E E 2 Y &.>.A.H./.8 | ) T.T.6.8 /.d.r.I.*XM.+Xs.) b &.) L O.f.L f.g.O.) O.F Y.0.g.) 0.=.&./.| 8 ) &.d.O.=X-X",
"# < Z 3 1 Z 5 5 3 3 2 E B Q F p., j.;X$.|./ { n.] ] $.G X.X.-X:Xa.>X>.{ ] ] b.P G P P >.;X] _ x.x.p._ ] |.{ X.X.G G $.m.X.P c.,X",
"# } V 3 3 3 3 5 v 2 E C 3 J =.b.W.* I V.[ I $ X I I X 0 D.V.<X3.B.H [ I ~ ~ H H H #.#.-.S.i.OXZ.Z.K.[ z  .C.C.$ z m V.O $ S.oX1X",
"% r Z S 1 Z E 4 W 1 c c c +.8 /   @Xj M M x i t r < M M :.+.+.D a a w r ^ k i ^ i q.).).^ 2X3Xz.; q ^ a a x a i i e < < < j s.M.",
"4Xi c Z 2 Z 3 4 3 c E 1 c ,.L G i.:.5.^.Z Z 7 c R R A Q 7 R 7 Z E Z Z Z B 3 R c 1 7 V Z V D /./ H r 7 R 1 7 7 V V 7 7 1 2 Q I.5X",
"B.i A 1 1 1 3 3 c 3 1 Z 1 J | ] I E.V Z 1 1 1 E 2 1 3 3 2 c E 4 v v 4 6 5 3 5 1 Z 2 Z Z C Y 8 m.~ ^ A 1 1 c ..C 1 Z v 1 4 Q b n ",
"$ u 1 Z v 3 5 5 4 2 2 B c 1.L b.#.e 1 c 1 2 c E 4 E 2 2 4 E 4 E U 3 U 4 4 4 3 3 E E W Z E ,.L ] <X;.V c Z c V C 3 V 1 3 3 Q 8 _ ",
"m i c 1 3 3 5 4 v 3 v 3 V Q L 6X: r 1 1 3 v 1 4 U 3 v 2 3 3 4 E v W 3 3 4 E 6 4 2 E E 2 c t 2.u.I k Y E Z 1 S 3 C 3 2 E 3 t O.9 ",
"X i y.Z Z 3 5 U 4 4 3 1 V ' 0.{ z :.V c Z R 5 B S S Z Z 5 5 5 3 U 4 ..4 4 v 3 5 E '.E 2 Z ~.2.>.S.&Xc Z 1 c 2 3 Z Z Z 2 Z ( I.7.",
"V.^ 5.c Z Z U 5 4 5 3 Z R y.f./ I &XV R 3 1 B 3 3 3 5 3 4 5 4 S 4 4 E 3 3 3 5 5 4 4 E 1 Z t (.*.I w 7 B 2 Z 4 2 3 W 4 B 1 ( F p.",
"V.h 7Xc 7 Z W v 4 4 Z 3 Y ,.) ] S.x A 1 E 1 1 5 4 4 3 5 4 U 3 4 3 5 6 3 Z 5 S Z 3 3 2 c B ;.!.p.0 i V 3 E 3 4 U 3 4 W 4 3 ( O.p.",
"X i 5.7 1 2 v U 2 E 1 A c Y ) n I M c E 4 1 5 4 U 5 5 5 U 4 v 4 1 3 S 3 c 3 5 B 3 C 2 Z c 9.2.*.. D Q.2 4 4 4 2 2 2 E 2 3 Y &.b.",
"O :.A 1 Z Z B B Z Z 1 S 3 } ) { I r 7 1 Z 1 3 E 3 3 6 3 3 4 2 W 3 3 v c v 5 3 S 2 W W E 1 Y O.u.: :.7 E E Z 3 v 5 2 3 2 B K | *.",
": i ^.c c Z E 5 1 E 3 6 v 7 8 w.$ r 3 W 3 v B 4 B v 3 B 5 3 2 4 E 3 3 3 2 3 1 3 E E E 1 c Q @.G _.r 3 3 2 4 4 E W E B v 3 K ) p.",
": D A 1 c 2 Z E c c E 4 U N 8 X.+ < 2 2 5 1 v 4 3 4 3 3 1 v E E E E 3 3 3 Z 2 2 W 1 2 8.3 R T n.V.x 3 W 4 4 5 U 4 W 2 2 6 Q =._ ",
"S.).J 7 J x 7 7 K 7 +.Z 7 D @.G H w Q 1 Z Y R 7 7 R Q ( 7 c 7 A 7 7 Y Y Y 7 7 7 Q Y Q K 7 ( 8 { R.XX2 4 4 E 5 3 2 W 4 4 1 1.=.8X",
"W.s.| T | {.6.6.6.b 6.b b ) =X-X, s.T 6.b T 6.b d.&.8 &.&.b 6.6.b d.d.&.d.d.d.d.d.{.&.r.r.F k.>.: < Z 4 4 2 4 3 Z 1 2 E E A 8 ] ",
"v.j.u.u.P 5X{ n $.n 6Xm.m.P l.N.v.-X] b.P b.n ] P P P p.5Xx.5X] ! / P u.u.b.b.P b.5X! ! ! ! -X= #.< E 4 U E E 3 Z 4 2 1 c Q | _ "
};
