/* XPM */
static char *_ff35823476648fa937bf60504606b258sdJfyARcCKLihVj[] = {
/* columns rows colors chars-per-pixel */
"50 50 124 2 ",
"   c #6C6C6E",
".  c #6E6D72",
"X  c #706F74",
"o  c #747375",
"O  c #787876",
"+  c #767579",
"@  c #78777D",
"#  c #7B7B7D",
"$  c #81827E",
"%  c #7E7D81",
"&  c #807F84",
"*  c #838285",
"=  c #878883",
"-  c #898A86",
";  c #868589",
":  c #88878D",
">  c #8F8F8D",
",  c #8E8E8C",
"<  c #8C8C8E",
"1  c #8D8D8F",
"2  c #8E8E8E",
"3  c gray56",
"4  c #8C8C8C",
"5  c #8A898C",
"6  c #90918C",
"7  c #91928D",
"8  c #90908E",
"9  c #92938E",
"0  c #93948F",
"q  c #898890",
"w  c #8A8991",
"e  c #8B8A90",
"r  c #8B8A92",
"t  c #8C8B90",
"y  c #8C8B91",
"u  c #8C8B93",
"i  c #8D8C91",
"p  c #8E8E90",
"a  c #8F8F91",
"s  c #8D8C92",
"d  c #8E8D92",
"f  c #8E8D93",
"g  c #8F8E93",
"h  c #8D8C94",
"j  c #8E8D95",
"k  c #8F8E94",
"l  c #8D8C92",
"z  c #908F94",
"x  c #908F95",
"c  c #908F95",
"v  c #909090",
"b  c gray57",
"n  c #929290",
"m  c #909092",
"M  c #919193",
"N  c #929292",
"B  c #939393",
"V  c #949492",
"C  c #969792",
"Z  c #919095",
"A  c #929294",
"S  c #939395",
"D  c #919096",
"F  c #929196",
"G  c #929197",
"H  c #939297",
"J  c #959595",
"K  c #949496",
"L  c #959597",
"P  c gray59",
"I  c #979797",
"U  c #929195",
"Y  c #919098",
"T  c #939298",
"R  c #93929A",
"E  c #949398",
"W  c #949399",
"Q  c #94939B",
"!  c #959499",
"~  c #969698",
"^  c #979799",
"/  c #95949A",
"(  c #96959A",
")  c #96959B",
"_  c #97969B",
"`  c #97969C",
"'  c #97969E",
"]  c #95949A",
"[  c #98979C",
"{  c #98979D",
"}  c #98979F",
"|  c #98979D",
" . c #989898",
".. c gray60",
"X. c #98989A",
"o. c #99999B",
"O. c #9A9A9A",
"+. c #9B9B9B",
"@. c #99989D",
"#. c #9A9A9C",
"$. c #9B9B9D",
"%. c #99989E",
"&. c #9A999E",
"*. c #9A999F",
"=. c #9B9A9F",
"-. c #9A999D",
";. c #9998A0",
":. c #9B9AA0",
">. c #9B9AA2",
",. c #9C9BA1",
"<. c #9C9BA3",
"1. c #9D9CA1",
"2. c #9D9CA2",
"3. c #9E9DA2",
"4. c #9E9DA3",
"5. c #9E9DA2",
"6. c #A09FA4",
"7. c #A09FA5",
"8. c #A0A0A0",
"9. c #A3A3A5",
"0. c #A2A1A7",
"q. c #A2A2A4",
"w. c #A6A5AA",
"e. c #A8A7AC",
/* pixels */
"= $ $ $ $ $ $ $ $ - - , 9 - $ = o + % * * : & & # * * * % * 8 < % % ; : & ; : * : % * * * - $ - 4 5 ",
", 7 7 = $ 0 C C - 7 0 9 C 0 - 4 # ; u s < : * * ; < - 4 = - O.P k j R R j R ! m N * ; - 4 m * 5 N N ",
"- 7 4 # O = - $ = , , - 0 7 5 < % * < u < * * - : 4 - 5 * - O._ k k ] k w k ] s N % % * - 5 * 5 > 4 ",
"- , 5 # O # $ $ O $ # # = - = - @ & * * & & & & % * # $ # % N < A k ] s : j ] t 4 @ o o O $ # * 4 - ",
"o o o o o X o O @ # @ o * 5 5 : * ; * : * & # O @ # # % # # , * % & & % o # & % ; # # # # # @ - X X ",
"* & * : 5 * * , * * $ # * N P ! x x z x ( T - % # * $ - * $ 8 * : t Y w & : k : : ; m m m 4 * : $ # ",
"; * % % * * * * : z * # : ! E E x z x ( } ( 1 : * * * 4 = = 4 * & : j ; % ; p : t : k ] K t * - # # ",
"% % @ + % : : & u u * @ * s x x < z x E z : & % * * # = # % 4 % @ % : % % & q * k ; ; : - ; % * o o ",
"@ X + @ # + . % % % + + # % w * & % X + * * # % O # # o O #   o * @ % # o + ; % % % o X @ % % % o o ",
"s : u x ! s % : w Y : q s s } E x w * * j A m P : N N - 4 4 $ - p ; 4 M : t ] t ] ] t ; 4 k t k K K ",
"z : : s E s % : : z : w s < P s u : * ; A j 4 A N A P : , : # * p * - t 4 A ~ j k ] : ; : q w t ] ] ",
"u ; : ; u s * A : x : u u : A s u x w s R A 5 5 A N P 4 4 , # = j - ; - 4 k ~ ` s k : & : j t j j k ",
"o o # + @ @ o ; + # o @ o o # % % * % % * % + o # o $ @ o # o # O o o O # @ % : % * % o % & % & % % ",
"* 5 A 4 4 - # 4 * 5 * * * # 5 z z E u * : : 5 4 4 * 4 4 * - * = * - 5 , > 4 5 K t k w : t j w : ; q ",
"* - N 4 4 * # = * - * 5 = # 4 P E =._ u s s 5 : : * N P 5 5 = * * 5 * - m - * m : k j w Y Y r q q j ",
"N z N 5 4 4 * 5 , N 4 P 7 5 O.8.=.w.w.6.4.^ : : * $ ^ 9.^ O.P P : - % % 4 ; % 4 K %.` ` 7.0.>.;.>.<.",
"; @ @ @ o * &   o $ * $ # $ * $ : * q q & & & % + % & ; : : ; & # + @ # @ o @ * % : u * w @ ; * : : ",
"t ; * : : ` $.5 o # * # $ $ * * < 5 x x & & : & & u ( ' { &.:.{ p q q m m q u M * w ; % * o * ; : : ",
"k t t w t ] ^ 4 # 5 5 - = , > 4 u T :.} q 5 x ( Y ' 6.:.{ 6.6.:.; ; : q q q : : u j : * : @ ; j j Y ",
"] k j 4 : t 4 - # * - * = , 6 - ; 5 x x & : x ' x ' :.' T W ' T q : 5 h M m u 5 * ; * ; 5 @ ; j u u ",
"; : * % * % * % o @ # # # * * # & & * : & & 5 5 ; e 1 ; & & & & @ o X X + @ @ + @ * + % % @ % ; % # ",
"* ; % % % # O @ o # $ $ % * $ # x 5 5 z : 5 z z ; e : & @ & & @ % * % # # & * * % w % * & * ; p q q ",
"^ ` w ; 4 ; # * % - 5 * - : - * &.( _ &.T } 6.&.&.1._ e e x z & 5 5 ; ; * : 4 1 * ~ 5 p w L ~ ~ ;.$.",
"^ ^ 4 * m 4 % * * ; : - - 5 * # x z E ( T ( &.&._ &.H : 5 x z ; * 5 5 * * ; 5 4 + a ; M a $.~ A ' ' ",
"% 4 % # - % @ $ # % % $ * * % o u * : : : x < x z z & & & ; & & $ % # # % % # % o # * 5 4 m 4 * * ; ",
"$ - % % ; % # % # o @ # $ % % # & % * % * ; % * # & # O # & & ; * % # o # % $ # $ ; 5 * # $ o   # # ",
"- t 4 4 4 5 * - 5 * # : : t : : z : N 4 s A : 4 : 3 1 5 1 z z  .X.6 * * 4 6 p 4 5 p C X.X.X.4 * 5 5 ",
"- 4 4 4 4 5 - ; 4 * * : A w : 4 4 * 4 5 5 s * * 5 1 : & - 5 5 1 p ; $ $ * 4 5 5 4 M X.X.C p $ o 5 ; ",
"O $ $ $ # # # # # + + * : % + % 5 * 5 * : 4 * * < : $ % ; ; & ; 5 = * = = 4 5 5 5 4 6 6 4 5 # o 5 5 ",
"$ O # $ O # * # # # % ; ; & % * @ o @ + O @ o o # O     o o X o o o + + + + o o o o o o # $ $ # # # ",
"* $ = * # # 5 = * : s j w q w 4 : * 5 * * - % * # & # % - * % = $ $ $ * = 5 * $ 4 ; $ * 5 1 4 4 5 5 ",
"- # * $ o # 5 ; : s A w ; * : : : * - * * * $ % # % & * 5 * # ; ; $ % $ = 4 ; $ $ $ % = 4 p 4 5 % $ ",
"; % & & + % ; % q q % % q % % r : & & ; & & # & & # @ & * @ @ # # : * * = * * O * # * < 5 * 5 * : ; ",
"@ o % % + % % % % % % % % % % % & @ & & & & @ & X @ # @ # # # # o $ O @ @ o @ X o . O # # # # # % X ",
"u q q j r Y R j >.;.Q q & h Y h q q x T &.( W H % H +.z 8 =.=.< 4 A 4 4 5 * = * = % * ; * * * * * % ",
"Y q q q ; q Y ' Q ;.Q q Y Q Q h x x c T ( ( x z &  .9.E z _ +.8 N N : N 5 @ % * * % * * % $ * * & # ",
"u j : & % & q R j R Q j h } Q & T T c x x x z 5 : E +.E 8 z z 8 : 4 - 4 - @ % * * % * * % * < < & # ",
"% ; ; % % + + % & q q % % r % % & & & @ & ; & @ @ % % % % # $ % o # @ % % o @ @ + o + + X # * * # @ ",
"q ' ;.] ;.j ; t ;.;.R Q Q Q Q Y t x 5 & ; x x e ; : - 5 4 1 5 ; # 4 5 A ] m m - * * ; = % 5 S A K j ",
"q ;.' ' ;.R : j R u u j Q Y Y Y x c : & & E ( z 5 e 5 ; 1 B < % % : 4 m K M m * * = ; * $ 5 A M h w ",
"( &.6.e.' &.: x R Q Y u x E E x T ' : % : q 5 ' : x * - 4 4 , % % 1 A X.8.A * - % 5 5 $ % 5 p 5 u u ",
"@ @ ; ; & & X @ % % @ % % % % % & * @ + % @ + & # # o o @ # # X o # # % * # X @ % + + + # # # # % % ",
"& @ ; & & & % & % % & q q * * u T ' Y x x z ; q : ; @ * : = : * ; ; * * ; * # * S = % 5 1 5 * * ; ; ",
"& + ; % & & & * % % & u q * : E q x x T x z ; 5 x : @ * 5 * 4 : < < * - * * & * ~ 4 ; 5 1 ; * $ & * ",
"& + ; & : & * ; * & * 5 < * q &.u u Y Q x z z E E : # : 5 * 4 5 1 ; < 1 5 - * * S A 1 5 ; * ; ; & * ",
"X   X X + X X @ X X X + @ + % ; % + % ; & % * ; % % o o O X @ O % O # * # # o   # # # o     o o + o ",
"- % & & # - % 5 + @ % * : 5 < z & % & 5 & # * : ; s : - ; & 5 ; A * ; 7 ; ; ; # * $ * * # o + * * ; ",
"x 5 ; 5 & 1 * z + % & - z E T z x ; x Q : * s u ; E z < 5 5 x z ^ ; < A - 5 1 * ; & ; p 5 # $ p 5 ; ",
"5 5 q 5 q q z t % & q c x x x q : q x x T @ : ; x q t c q t W T Q ; q A 1 = * - 1 < 7 < < * % u h h ",
"& & & & & & ; & + & & q : 5 : & & & : q q + & & & & & : & & t t q # # * * # $ % - $ * * * % + ; w q "
};
