/* XPM */
static char *ea4d6e20dcab40fc9c63722beaddf883i3M6QWNzZpBkvMkK[] = {
/* columns rows colors chars-per-pixel */
"50 50 221 2 ",
"   c #2D2824",
".  c #312C28",
"X  c #342F2B",
"o  c #35302C",
"O  c #36312D",
"+  c #37322E",
"@  c #38332F",
"#  c #3A322F",
"$  c #393430",
"%  c #3A3531",
"&  c #3B3632",
"*  c #3C3431",
"=  c #3D3532",
"-  c #3C3733",
";  c #3E3633",
":  c #3F3734",
">  c #3D3834",
",  c #3E3935",
"<  c #3F3A36",
"1  c #403835",
"2  c #413936",
"3  c #403B37",
"4  c #423A37",
"5  c #433B38",
"6  c #413C38",
"7  c #423D39",
"8  c #433E3A",
"9  c #443C39",
"0  c #453D3A",
"q  c #443F3B",
"w  c #463E3B",
"e  c #473F3C",
"r  c #47403A",
"t  c #45403C",
"y  c #46413D",
"u  c #47423E",
"i  c #48403D",
"p  c #4A433D",
"a  c #48403E",
"s  c #49413E",
"d  c #48433F",
"f  c #4A423F",
"g  c #4B443E",
"h  c #4B4340",
"j  c #494440",
"k  c #4A4541",
"l  c #4B4642",
"z  c #4C4441",
"x  c #4D4640",
"c  c #4E4741",
"v  c #4D4542",
"b  c #4D4543",
"n  c #4C4743",
"m  c #4E4643",
"M  c #4F4744",
"N  c #4F4745",
"B  c #4F4842",
"V  c #4D4844",
"C  c #4E4945",
"Z  c #4F4A46",
"A  c #504845",
"S  c #514A44",
"D  c #524B45",
"F  c #514946",
"G  c #504B47",
"H  c #524A47",
"J  c #534C46",
"K  c #544D47",
"L  c #534B48",
"P  c #514C48",
"I  c #524D49",
"U  c #534E4A",
"Y  c #544C49",
"T  c #554E48",
"R  c #564F49",
"E  c #554D4A",
"W  c #544F4B",
"Q  c #564E4B",
"!  c #564E4C",
"~  c #574F4C",
"^  c #57504A",
"/  c #55504C",
"(  c #56514D",
")  c #58514B",
"_  c #58504D",
"`  c #59524C",
"'  c #5A534D",
"]  c #59514E",
"[  c #58534F",
"{  c #5A524F",
"}  c #5B544C",
"|  c #5B544E",
" . c #5C554D",
".. c #5C554F",
"X. c #5E574F",
"o. c #5B5350",
"O. c #5A5551",
"+. c #5B5652",
"@. c #5C5451",
"#. c #5D5650",
"$. c #5E5751",
"%. c #5D5552",
"&. c #5E5653",
"*. c #5F5754",
"=. c #5F5850",
"-. c #5F5852",
";. c #5E5955",
":. c #605951",
">. c #605953",
",. c #615A52",
"<. c #625B53",
"1. c #605855",
"2. c #615A54",
"3. c #625B55",
"4. c #615956",
"5. c #625A57",
"6. c #635C54",
"7. c #635C56",
"8. c #635F56",
"9. c #645D55",
"0. c #645D57",
"q. c #655E56",
"w. c #665F57",
"e. c #635B58",
"r. c #645C59",
"t. c #655E58",
"y. c #665F59",
"u. c #655D5A",
"i. c #665E5B",
"p. c #675F5C",
"a. c #676058",
"s. c #67605A",
"d. c #686159",
"f. c #68615B",
"g. c #69625A",
"h. c #6A635B",
"j. c #69625C",
"k. c #6A635D",
"l. c #69615E",
"z. c #6A625F",
"x. c #6B645E",
"c. c #6C655D",
"v. c #6E675D",
"b. c #6C655F",
"n. c #6D665E",
"m. c #6E675F",
"M. c #6B6360",
"N. c #6D6660",
"B. c #6E6761",
"V. c #6D6960",
"C. c #6F6860",
"Z. c #6F6862",
"A. c #6F6B62",
"S. c #706961",
"D. c #716A60",
"F. c #726B61",
"G. c #706963",
"H. c #716A62",
"J. c #726B63",
"K. c #736C62",
"L. c #746D63",
"P. c #716A64",
"I. c #726B65",
"U. c #736C64",
"Y. c #736C66",
"T. c #746D65",
"R. c #766F65",
"E. c #746D67",
"W. c #756E66",
"Q. c #766F67",
"!. c #756E68",
"~. c #766F69",
"^. c #786F68",
"/. c #787167",
"(. c #777068",
"). c #77706A",
"_. c #787169",
"`. c #797268",
"'. c #7A7369",
"]. c #78716B",
"[. c #79726A",
"{. c #7B726B",
"}. c #7A736B",
"|. c #78746B",
" X c #7B746A",
".X c #79726C",
"XX c #7A736D",
"oX c #7B746C",
"OX c #7B746E",
"+X c #7D746D",
"@X c #7C756D",
"#X c #7D766C",
"$X c #7C756F",
"%X c #7E756E",
"&X c #7D766E",
"*X c #7F766F",
"=X c #7E776F",
"-X c #7D7670",
";X c #7E7771",
":X c #7F7870",
">X c #7F7872",
",X c #807770",
"<X c #817871",
"1X c #807971",
"2X c #807973",
"3X c #827972",
"4X c #817A72",
"5X c #847973",
"6X c #817A74",
"7X c #827B75",
"8X c #837C74",
"9X c #837C76",
"0X c #857C75",
"qX c #847D75",
"wX c #847D77",
"eX c #857E76",
"rX c #867F77",
"tX c #878078",
"yX c #88817B",
"uX c #89827A",
"iX c #8B847C",
/* pixels */
"& & & & & + & > & > > > > 6 6 > 3 1 1 1 5 e f e 5 e f z m M f w Y ! ~ ~ %.n :. .:.9.p.<.a.C.L.v./.E.",
"- & > > > & & 6 q q 3 & > 6 t q e q 4 4 e z A A w z M M A F M z ~ %.%.R  .M <.e. .<.<.=.6.C./.L. X/.",
"& & - > - & & > t t 6 > > 6 t t d e 4 5 e z A L e z A A A L A z ~ ~ ~ !  .g <.4.9.a.9.9.a./.,X X X}.",
"> > > 3 > > > 3 3 t t q q t d t e e w w e f z A e A F F L Y L M A Y %.%.e.L <. .9.a.9.6.6.C.K.L.}.Q.",
"3 6 6 q 6 q q 6 > 6 t 6 6 t d d z z z M z m z z f M L L Y ~ ~ L Y ! ] ] <.J 3.3.a.f.f.v.v.C.L.L.Q.E.",
"& > 6 6 6 6 6 6 q t q > > 6 j C e z m M M f z e w f z M F Y Y L R Y Y A ^ g 4.4.a.f.v.G.E./././.G.n.",
"X & > > 3 6 q 6 t j t > > 6 j C e e M m z e z f 2 w e z M Y Y L Y ! L A K r ` ` } =.6.a.n.G.C.K.L.n.",
"+ > 6 6 q t t t t j j t 6 6 t d e m A M m m A L w f z M L ~ { ~ ! ` +.` <.n } R 9.a.v.n.K.E./. X$X X",
"6 > > 3 6 3 6 t t I j q j j 6 j w z e F F m Y A 5 ~ %.Y H Y ! %.! +.%.1.~ } t.<.6.=.6.a. XG./. XQ.Q.",
"t 6 6 q q 6 t j C G d 6 t C C I F E z F E F E A f { :.~ ~ { ! ~ &.1.1.r.` R s.4.C.f.f.6./.L./.#X}.Q.",
"q t t d t 6 t C I C t t t G ( G %.~ e F E Y ~ F M { %.] %.1.~ Y r.e.&.p.1.` j.n.C.C.C.6.Q.L.'././.}.",
"6 t t j t 6 t C C t j n t C ( C ~ E z F E Y ] F z ~ { { 1.:.! Y p.&.@.p.4. .N.I.a.C.E.9.Q.Q./.K.(.}.",
"6 t j j t 6 t C t t G G t C O.I Y ~ F E E F ~ Y e ! ] { %.{ ! ! p.@.~ p.4.| b.G.a.G.L.9.E.E.'.K.}.}.",
"t t j j j t j C j j C C t C +.;.E ] E ~ ~ F ] Y b ! ~ ] %.~ ! { e.e.&.p.3. .f.f.C.L.L.<.C.G././.$X$X",
"q t t j d t d j j I C j n G I +.~ %.F E ~ E %.! ] %.] ~ 1.:.~ %.e.r.e.j.9.4.n.4.v.C.n.=.n.n./. X,X=X",
"6 6 6 t t t q t j ( I j I C t j ~ ~ e A ! ] 1.%.5.1.~ ! 1.5.{ ] e.r.t.b.s.f.G.9.=.6.f.<.L.C.E.}.,X8X",
"e z e w e 9 w A F F m z A F F m e m w m %.{ { E { :.1.{ { _ H b t.s.s.s.s.s.j.b.s.b.s.^ t.].!.E.$X,X",
"9 w w w e 2 1 e m m m m A F F m m F 5 e ! ! 1.%.{ { { { { %.Y h | -.4.3.s.s.f.j.s.N.b.| 4.I.G.E.Q./.",
"w e e m m w 2 e e z m m F Y F m Y E w e H Y { :.1.1.{ 1.5.5.%.H `  .4.t.f.f.b.n.N.A.A.4.t.N.j.!.1X0X",
"e A M A F z e F e z m m A Y Y F F ~ e F { H ! ! 1.1.5.1.i.i.1.! |  .4.9.s.b.b.G.I.I.I.j.N.!.N.;X$X X",
"m M m m A e z Y m A M z m F E E A E m E 1.E ! ] ! %.1.1.1.1.{ ! -.+. .<.3.4.j.N.Y.Z.N.N.!.;X].6XQ.E.",
"m F m e m e z E F E F m m F E E A Y e E :.~ 1.u.Y 1.5.5.1.1.%.:.s.4.<.4.3.<.p.A.N.N.N.j.!.6X].6X1X=X",
"m F z e m z m E E ] _ F m A L L F E z E 1.] 5.l._ 1.5.5.5.5.1.%.N.t.3.s.t.3.s.G.t.n.I.t.!.6X;X;XtX0X",
"e A e z m e e Y _ ] ] E F F F A E ] m ] 1.! 1.u._ { 1.1.1.1.1._ j.9.3.t.t.<.3.b.t.I.!.j.N.6X].6XuXtX",
"e z m F m e m _ _ ~ E Y A m F Y E Y Y Y ! { @.1.! { 1.1.r.i.1.! -.9.s.-.s.| j.4.j.Z.Y.Z.N.!.>XyXiXiX",
"e e w z m m z z F F E E L F F F ] ] ] _ ! _ { :.! 1.1.1.1.4.5.5.4.t.9.4.3.} j.t.Z.Y.Y.Z.A.E.-X-XtXtX",
"z z e e A F A e m A F F M A F L ] ] @.] ! E ] ] H _ 1.{ _ :.5.i.4.9.9.+.3.G 9.j.P.I.A.Z.Z.E.E.Y.8X8X",
"1 e Y m e m Y Y M M z w 9 e F Y A E _ ] E E E ] e b ! { { { 1.1.4.<.<.<.-.g <.s.p.j.M.Z.Z.Y.Y.I.L.Q.",
"# w A e e z A F M F m w 9 e A L m F E E ! E ] ] e h H ! { { { { 4.<.9.4.<.d +.t.t.j.N.I.A.E.E.].L.L.",
"9 9 w w z F F m m F F m e A F F F F E ! E ] ] E H A H ! _ _ { 1.e.9.t.t.9.S <.4.j.N.I.!.E.E.~.-X=X=X",
"m w w e m m m m e E E F A Y _ Y Y F F L ! ] ! E H E ! %.{ ! { 4.<.t.t.<.p.} j.t.N.N.N.I.E.E.].-X(. X",
"e w e e w 2 w F m L Y e e F ] ] F A e M ! { ] Y b Y 1.5.1.E E %.X.e.e.+.9.` N.t.N.t.t.M.E.].oX:X(.oX",
"e d 5 e j j 6 j V C V t j W / C %.{ z A ~ Y E E F Y 1.1.1.1.1.H u.:.%.:.4.-.a.A.N.N.I.t.N.wX;X].0X5X",
"e z e d j t 6 j j j j t j I / P ~ ~ e A ~ Y ~ ~ A Y %.1.%.1.1.b e.:.+.1.<.-.3.b.j.j.N.j.I.6X;X;X5X5X",
"< j j t j 6 6 j 6 t j t t G W I Y ~ e A ~ A ~ %.b H %.1.:.5.1.Y <.{ X.e.4.-.4.j.j.s.A.j.I.].OX6X,X,X",
"> 6 e j j q 6 j q j j j t j G I Y ] z A Y A Y ~ A H { :.%.r.r.~ :.{ :.:.<.-.-.t.j.s.N.x.N.!.!.;X+X+X",
"- > > 6 j t 6 t j j C j j j j V F ~ z A Y m Y ] Y Y { { ~ 1.4.~ {  .:.4.4.<.<.9.j.9.n.f.t.G.I.$X,X,X",
"> > - > j t < 6 j V j j t j t j m F 5 z Y A E ] ~ ~ { Y A ! ~ z } { :.<.4.<.4.9.3.4.j.4.4.I.I.$X$X,X",
"- > > > < - & < j t t t t j j t z z 1 e A z F Y Y Y ~ ! A Y Y w R } { +.+.<.4.9.4.3.t.`  .G.E.!.!.OX",
"- 6 < > > + X > t 6 < t j j j t e f * 5 A e m z A A ~ ~ H ! Y w K ~ }  . .4.9.4.3.s.t.R ` N.I.I.(. X",
"@ - < 6 > @ & < > 6 t j j j t j Y z 2 z z 5 A F F ~ ~ %.] ~ Y m R G ` 3.4.3.f.s.s.9.<.<.s.s.s.I.:X=X",
"> 6 6 q > & > t < < 6 t t t j j e e 5 A Y e m m z Y ] ~ ~ Y Y A +.^ ^  .^ ` <.3.3.j.3.4.j.b.N.I.(.|.",
"6 < 6 6 > - > t 6 < > > 6 t j j w e 5 F Y z A z e A ~ E Y F Y F 9. .| O.^ } -.3.4.j.t.<.t.I.A.I.n.n.",
"< > > > & & > t t q < > < t j t e e 5 z F z Y Y e m L L Y F A A  .} -.3. .| 4.<. .j.t.+.t.N.G.N.Q.(.",
"> & & & & & < j j t 6 < 6 t t 6 e z 5 z A m E Y z m A A Y Y A z ` K  .4.` ` 4.4.+.j.9.+.t.N.A.M.|.|.",
"- & & - - & < t 6 t t < 6 t t < 5 e 5 m A m Y A z m z m Y ~ Y e +.~ { <.R } -.3.<.j.t.<.t.N.x.N.A.A.",
"@ + @ - & & - > < t t > > q t 6 5 e 5 e z e A z e z z z A Y Y z { }  .<.^ R <.<.e.p.9.3.f.t.t.j.v.v.",
"+ o + & & + + + - t 6 & & 6 t t e e 1 1 2 5 A A w e z m A F L A n n ` 4.^ R } } e.9.4.<.t.4.<.p.a.9.",
". X @ & @ @ & > o @ & @ & < 6 6 6 e j e e 3 5 e w 1 A A z F A A L M ~ A E z ~ %.<.<.e.9.h.f.w.<.x.f.",
"  . X + + X + & X + + X + - - - 1 6 5 5 5 1 1 1 2 * z z e A z z n w A e A 5 A Y { { :.e.f.h.h.a.e.<."
};
