/* XPM */
static char *f421bc96e3074e71a678858b8e5aaf14qvc81VnMZJYa6bk3[] = {
/* columns rows colors chars-per-pixel */
"80 50 248 2 ",
"   c #09030A",
".  c #120908",
"X  c #0B0916",
"o  c #110B14",
"O  c #130D1B",
"+  c #14121C",
"@  c #1A1519",
"#  c #1D140F",
"$  c #241D1A",
"%  c #1C1A25",
"&  c #191625",
"*  c #150720",
"=  c #221D24",
"-  c #241F2A",
";  c #2C232C",
":  c #272229",
">  c #332929",
",  c #2B2633",
"<  c #2C2A35",
"1  c #2D2939",
"2  c #332B33",
"3  c #322D3B",
"4  c #382F34",
"5  c #36323C",
"6  c #3A333D",
"7  c #393336",
"8  c #3D362F",
"9  c #292218",
"0  c #443C3D",
"q  c #423839",
"w  c #4A3F2D",
"e  c #4A413C",
"r  c #554C3B",
"t  c #5D503D",
"y  c #3A3644",
"u  c #322C40",
"i  c #433D43",
"p  c #493E44",
"a  c #433D4A",
"s  c #473949",
"d  c #433C50",
"f  c #454144",
"g  c #4C4444",
"h  c #45414B",
"j  c #4B444B",
"k  c #4D494E",
"l  c #4E4B46",
"z  c #534A44",
"x  c #544B4C",
"c  c #594E4D",
"v  c #534847",
"b  c #5B534D",
"n  c #5A5449",
"m  c #4C4651",
"M  c #4D4A52",
"N  c #474552",
"B  c #534C53",
"V  c #594E52",
"C  c #564F5A",
"Z  c #555155",
"A  c #5C5454",
"S  c #565259",
"D  c #5C545A",
"F  c #5D5A58",
"G  c #63594A",
"H  c #615654",
"J  c #645A55",
"K  c #6A5D55",
"L  c #645B5B",
"P  c #695E5B",
"I  c #625558",
"U  c #696349",
"Y  c #6C6355",
"T  c #6C635D",
"R  c #69655B",
"E  c #736B54",
"W  c #72665C",
"Q  c #736A5C",
"!  c #7B6D5B",
"~  c #79715B",
"^  c #766D4E",
"/  c #5D5962",
"(  c #635C61",
")  c #655D65",
"_  c #666264",
"`  c #6C6462",
"'  c #6D6965",
"]  c #6D6A6B",
"[  c #69646B",
"{  c #716562",
"}  c #746B63",
"|  c #796D64",
" . c #736C6A",
".. c #776A6B",
"X. c #7C7364",
"o. c #75726B",
"O. c #7C736B",
"+. c #7D796C",
"@. c #7A7563",
"#. c #786E74",
"$. c #7C7473",
"%. c #7D7973",
"&. c #797777",
"*. c #847D5C",
"=. c #827665",
"-. c #837B64",
";. c #82766C",
":. c #847B6C",
">. c #8A7D6C",
",. c #887C65",
"<. c #817673",
"1. c #847C73",
"2. c #897E73",
"3. c #847D7B",
"4. c #8B7F79",
"5. c #8C836D",
"6. c #898367",
"7. c #92856C",
"8. c #948B6E",
"9. c #9C976E",
"0. c #858273",
"q. c #8B8374",
"w. c #8D8A76",
"e. c #86827B",
"r. c #8C847A",
"t. c #8D8B7C",
"y. c #928574",
"u. c #948A74",
"i. c #9A8C74",
"p. c #92867A",
"a. c #948C7B",
"s. c #9A8D7B",
"d. c #988678",
"f. c #9D9275",
"g. c #94917C",
"h. c #9C937C",
"j. c #9E997C",
"k. c #959176",
"l. c #A29475",
"z. c #A49B75",
"x. c #A3947C",
"c. c #A59A7D",
"v. c #AA9C7D",
"b. c #A08F7B",
"n. c #ACA17C",
"m. c #A6A37B",
"M. c #B3A87E",
"N. c #B6B37C",
"B. c #857E82",
"V. c #8A8682",
"C. c #948D83",
"Z. c #958C86",
"A. c #959183",
"S. c #9C9483",
"D. c #9D9A84",
"F. c #9C948A",
"G. c #9D9A8A",
"H. c #979388",
"J. c #9D9290",
"K. c #A39582",
"L. c #A39B84",
"P. c #AA9D83",
"I. c #A1968A",
"U. c #A49C8B",
"Y. c #A99D8B",
"T. c #A49D92",
"R. c #A99789",
"E. c #A5A085",
"W. c #ADA384",
"Q. c #A5A18B",
"!. c #ABA38C",
"~. c #AEA98D",
"^. c #AFAA85",
"/. c #B1A483",
"(. c #B4AB84",
"). c #B9AC85",
"_. c #B3A58A",
"`. c #B4AB8C",
"'. c #BAAD8B",
"]. c #B5B28C",
"[. c #BCB28D",
"{. c #BBB488",
"}. c #A5A292",
"|. c #ABA492",
" X c #AEAA93",
".X c #ADAB9B",
"XX c #B3A693",
"oX c #B3AD93",
"OX c #BBAE93",
"+X c #B3AC9A",
"@X c #B9AB9A",
"#X c #B5B294",
"$X c #BBB494",
"%X c #BDB994",
"&X c #B3B299",
"*X c #BBB49B",
"=X c #BEB99C",
"-X c #B6ADA3",
";X c #BCB6A3",
":X c #BDB9A3",
">X c #B6B4A9",
",X c #9FA092",
"<X c #C1B58C",
"1X c #C4BB8C",
"2X c #C4B986",
"3X c #C2B493",
"4X c #C4BB94",
"5X c #C9BD93",
"6X c #C2BB9B",
"7X c #C9BE9C",
"8X c #C0B69B",
"9X c #C2BCA4",
"0X c #C5BDAB",
"qX c #CBC48D",
"wX c #C6C294",
"eX c #CBC494",
"rX c #CDCA96",
"tX c #C6C29B",
"yX c #CBC59C",
"uX c #CDCA9C",
"iX c #D3CA96",
"pX c #D2C69C",
"aX c #D2CC9C",
"sX c #D9CE9C",
"dX c #D3C895",
"fX c #D5D29D",
"gX c #DBD29B",
"hX c #DBD696",
"jX c #D0C993",
"kX c #C5C2A2",
"lX c #CBC4A3",
"zX c #CBC7A6",
"xX c #D2CCA3",
"cX c #D4CBA6",
"vX c #D5D2A3",
"bX c #DAD4A3",
"nX c #DDDAA5",
"mX c #DBD6AB",
"MX c #DCD9AB",
"NX c #D6D2AA",
"BX c #D2CBB1",
"VX c #DBD5B4",
"CX c #CEC9B5",
"ZX c #E1D9A8",
"AX c #E3DDB9",
"SX c #E4E2AF",
"DX c #E3E49E",
"FX c #EDE8C4",
/* pixels */
"X & , - f } @.6.u.6.b./.i.i.v.l.v.c.S.G ^ '.i.v.n.b.b.v.z.^ c K.>.,.d.d.d.>.=.>.=.! Q Y :.y.! 2.>.>.>.,.r.P @ & 3 3 B 0 8 r p p p q 5 > q D ` I c n T J v p ,   ",
"+ + & + 4 T y.i.i.8.P._.v.x.v.v.n.`.=.=.Y././.v.v._.x.b.`.5.G =.P.v.l.x.v.b.b.K.x.S.5.2.p.>.>.2.>.b.>.=.;.o.j O 3 d B J b n I ` A A g g I ` P J H H R H v v 4 @ ",
"+ + & % ; H 2.d.i.8.n._.v.v._.P.P.8.t y.XXl.(.M.x._.v.x.'.W.E G s.Y.b.i.l.b.x.i.u.s.>.h.h.>.f.8.>.R.>.>.=.q.1.> @ s p c K Y ..c A x e z ` } K L P K I b v B v > ",
"X + 1 3 2 g Q K.v.l.n.M.l.v.M.v.`.^ ! K.v.v.M.v.v.v././.W._.i.G | R.K.P./.x.P.i.7.q.5.S.h.7.i.7.b.d.4.d.>.w.Z._   , s A b H { A F j v L { W K T P I A x x A I g ",
"+ % < 1 6 0 J Y.P.z.n.n.v.v.(./.8.U c.`.v.<XM.n.'.n._._.v.'.'.5.t p.R._._.v./.b.d.6.h.K.x.c.i.i.R.>.b.b.y.y.e.Z.s o ; B D A B B v 6 v { { K P W _ P I V V I I g ",
"+ % : 3 j f e =.!.W._._./.'.8X8X^ f.`.(.<X<X<X<X<X5X<X3X'.'.8X$XG 8._.3X).n.M.P.l.d./.x.c._.b.R./.b.x.d.y.h.5.a.{ @ = 6 p v q q p q z { Q W | | { { I H D I V p ",
"+ % < 6 M x 0 n Y T T Q } X.-.-.5.zX5X{.5X<X2X1X1X5X1X5X4X<X4X4X=.O.R._.b.R.b.K.8._.`.v.v.v.i.x.P.x.x.4.y.h.s.y.2.2.a.1.| X.1.V.O.} J K ;.<.| | | | T K I L V p ",
"+ % < < y Z c c v V I L L T ` Y -._.3X<X2X1X2X2X1X<X<XsX4X[.1X!.g ; V I K =.K K Y Y.n.M./.x.P.R.l.v.b.R.i.i._.i.6.x.=.5.x.y.y.>.h.u.z w ;.4.| :.=.! W Y W P I x ",
"O , ; 6 p x I ) { ;.>.=.1.p.y.8.*.P.6X5XeX4X<X1XqX5X2XdX2X<XlXy.  u V ` :.:.;.q.Q s.#X#Xn.c.W._.c.R.R.x.K.K.d.=.y.s.d.d.C.a.u.2.=.y.| 0 H <.....<.| { W T L x g ",
"& - 3 y i p V V 4.p.s.5.2.d.j.f.u.l.[.eXqXqXdXqX2X5X2XiXeXlXOX> = V o.r.K.x.s.s.q.y.P./.P._.OXP./.P.c.R.P.c.d.7.b.S.K.s.s.s.d.y.y.4.S.K v W Q ..| W | T T { H c ",
"& & , 6 p V x P 2.y.x.f.d.Y.'._.x.7.W.lXsXsXgXeX5XsXcXaXlX*X[ O 0 { u.L._._.v.R.S.>.s.$X$X/./.`.P.x.c./._.R.x.L.Y.K.K.s.s.C.a.s.y.>.C.2.r x { X.W ! X.{ T Q b l ",
"  X % , m V p 2.q.d.P./.v./.'./.v.8.f.3XiXiXiX2X7X5XrX1XNXU.- y L 2.K.L./._./.R.K.7.y.P.`.M.v././.n.'.'.v.i.h.c.P.x.h.S.S.s.d.a.y.d.:.p.K w Q } T W X.X.{ T l q ",
"u y A f q s x <.5.8.W./././.<XM.)./.z.N.eXjXsXsXsXcXsXcX4Xr X ) 1.K._._./.'._./.K.R.q.,._.lX3X`.P.~.XX_.v./._.L.x.h.i.b.b.d.d.s.h.s.=.q.t.b n %.2.+.:.O.} K g p ",
"] <.F.+.> 2 ( { 5.u.c.P./.).3X3X/.$XM.'.'.v.W.!./.3Xx.9X5.$ x 3.S./.3X3X3X3X_._._./.h.a.Y.I.p.s.d.d.y.>.>.R.P.7.x.l.s.x.x.d.s.d.i.>.a.r.F.' $ Z L F L A I I V A ",
"Y :.S.H.v - V K 0.j.L.P.(.(.M.3X_.OX`.#Xy.G T { ;.E t ;.<.{ +XP./.(.<X5X3X<X<X3X'.W.!.|.q.A n L c v v z K Z.XXR.!.c.x.x.c.i.i.b.b.y.S.H.e.i   = = ; 7 4 p I P ) ",
"! i.i.@XZ.; ; c @.a.K.P.<X).v.3X'.(.{.%X5.n 3.I.L.s.Y.R.d.Y.).2X<X'.3X3X'._.3X3X(.v.^.c.@.:.C.;.<.<...T K p.XXXX@XY.R.P.R.b.b.c.i.d.| Z.L X 1 , u j B j v [ ..L ",
"! +.f.E.*XR   N [ B.C.L.'.[.'.<X<X5X5X3Xw I.Y._.P.v.XX@X_.l._.pX3X).).3X'.'.OX3X'._.3X8.6.!.u.s.d.d.d.,.=.=.b.XXY.P.v.i.i.c.i.P.W.-.a.e.= y , y m L ) I x V K } ",
"Q q._.8.~.+Xe = g T 5.l.M.M.N.<X)./.cX*.E I.OX'.(.'._.OX5X3X_.7X5X'._.OX/./.'.3XW.XXs.7.d.L.U.s.S.d.d.S.S.=.=.OXOXP.P.c.W.P.l.!.c.a.G.A = : 6 a B L P c c c J W ",
"W 2.v.z.^.9X+.  p ` Z.R.Y.Y.P._.OXXXP.r s.|.8X'.).3X).'.7X<XP.OX3X3X_._.R.x.P.XXh.s.;.2.Z.F.I.s.y.R.K.S.I.y.:.L.Y.b.x.L.W.f.7.L.a.a.O.= 5 7 D B P ` ` K I b A P ",
"W p.8.'.$X9X0Xz . > c } ;.;.p.F.U.T.n G !.~.`.3X<XpX<X).<X).v._._.R./.v.b.7.u.x.U.{ ;.4.r.F.p.K.q.I.S.4.S.C.>.>.XXS.h.L.D.k.y.I.C.4.v = j j F c } | | { W J A I ",
"| F.x.z./.yXlX@.i.L.].4X<X{.1X7Xy.b 0 4.|.j.^.%X4X7X4X3X3X'.`._.3X3X3X3X_.L.v.P.OXQ { <.<.V.C.K.s.d.y.a.D.a.:.| r.2.:.2.;.X.O.1.+.L : p B D J { T X.| Q W J m v ",
";.5.W.f.(.lX6.6.pXdXaXgXgXgXnXZX@X$ p ) Z.y.].`.8XOX3X3X3X3X<X(.5XpX7XcXcXyX4XtX=Xy.v I P ) C.4.a.g.K.C.C.F.4.Y :.;.X.O.{ T | ..o.b @ C _ %.} 2.W o.| ! Y J x j ",
"@.6.m./.0X$X*.M.xX5XdXsXbXbXZXcXVXG 2 y ` 1.!.W.'.[.'.'.3X'.'.4X5XpXcXpXpXiXeXyX*X>XJ q m B ..$.:.D.I.q.C.I.p.| !.I.S.U.S.q.C.S.A.+.p s [ 3.o.X.| 2.<.W Y T A B ",
"E U.h.P.'.6.i.tXdX5X5XgXgXsXgXiXhXAX= y a ' q.E.'.5X<X).'././.cXdXsXpX7XaXpXeXrX4XAXJ.2 s D B <.2.p.2.p.I.y.;.K.!.h.s._.K.-.u.s.a.t.' : A ` X.X.| r.<.W Y T F C ",
"E 8.j.}.5.@.~.7XeXpXiXgXgXZXZXZXnXZXR.. 3 _ ] D.m.N.%X8XoX!.6XvX5X4XwXrXqXqXwXyX7X6XBXQ + y a ) { <.p.r.r.q.q.!.I.k.k.L.h.w.y.S.S.t.Z.V > D ..| | | ;.} A I L x ",
"Y 0. XD.~ 6.=X[.eXrXiXgXgXgXsXsXqXSX0XV O y ) V.}.&X X!.E.~.uXaXeXeXwXuXrXrXpXlX7X6X=X.X> y j m ` 3.<.3.O.1.I.U.!.x.c.E.j.a.d.j.y.a.Z.#.i q ) ] O.O.} P I L R L ",
"+.t.,X0.~ E.lXwXeXeXsXgXfXiXiXiXhXZXAX-XX X , N $.V.2.>.k.%XSXfXrXtX4XwXyXrXyX7X6X4X~.CXo.+ < - 0 I I T K ;.-X|.U.L.U.Q.j.h.h.g.y.D.C.Z.x : v A ` ` I v x b I R ",
"k F ' Y u.4X%XfXeXdXbXgXiXiXfXfXZXsXFXVXU R 1.t.S.!.L.f.^.zXSXuXuXuXtXtX4X6X4X4X[.].].kX>X@ l W W ;.O.1.=.2.XX XL.L.W.L.h.h.S.S.h.h.g.H...v I P K { T A x v v A ",
"< g L Q Q.tX(.%XeXiXbXnXfXfXnXfXgXbXFXm.9.vXSXMXmXMXxXuXwXvXMXuXfXuXzXuXtXtXtXyX4X{.%X9Xr.e q.&X@X~.*XoX!.S.u.!.U.!.~.L.a.h.D.F.S.a.D.d.r.S.r.q.p.C.r.<.{ c 6 ; ",
"m R V.C.h.%XwX{.rXrXmXZXbXbXnXnXbXnXMX^ m.rXrXfXSXMXuXvXuXwXvXvXwXuXuXuXeXuXxXxX%X%XzXkX9 { S.!.#XW.=XOX*X!.*.L.oXXX XU.g.a.S.S.I.s.I.:.5.U.w.q.;.;.>.1.1...c ; ",
"x  .r.a.5.E.xXuXyXeXfXnXfXvXnXfXvXvXj.m.VXzXwXnXMXxXuXxXuXwXuXvXwXwXzXtXwXuXtXtX`.6XkX:.8 H. XW.].^.#XOX#XOXu.-.~.!. XY.h.a.S.I.F.F.w.-.q.w.=.X.4.1.2.1.{ } A ; ",
"l o.1.A.D.j.6XzXuXwXuXbXfXfXbXuXfXNXU ~.BXxXfXrXnXfXtXNXfXwXuXuXzXxXzXtXyXuXyX%X*XkX-X. B.J.XX#XOX@X~.~.oX*XQ.Y K.I.P.U.h.s.S.L.S.a.@.w.Q.a.C.r.<.<.Z.1.T O.o.v ",
"Z ` u.D.I.!.+XlXwXqXsXnXfXmXnXvXVX6.z.NXcXzXfXuXvXMX6XtXvXtX6XtXwXuXyXtXzXtX8XyX$XVXz c K.!.^.(.%X].E.^.oXoXL.k.6.a.!.|.H.w.p.D.H.;.r.2.w.I.q.:.:.q.1.1...{ ..T ",
"M ' 0.k.c.W.[.{.uXrXhXgXhXhXDXnX%X6.tXMXxXMXvXvXvXuXxXxXuXuXyX%XfXrXtXrXxXuXyXyXBX>.> <.-XT.@X$X#X].~.~._. X!.D.:.w.C.a.q.:.r.H.r.0.q.a.y.r.a.X.:.w.q.2.O.{ ` A ",
"Z o.1.h.z.^.=XoX.X&X;X8X$X4XtX%X8.(.MXvXuXMXvXgXnXuXvXxXrXfXxXtX].W.#X=X`.`.#X~. XW K *X;X X*X#X].#X#X~.~.oX|.U.:.5.0.2.+.Q | O.2.:.} t.C.q.C.:.:.r.1.1.O.{ ) A ",
"b ' 0.U.c.^.kXG.  O 1 s A K ) L +.VXmXrXvXuXuXfXvXvXuXxXfXuXcXzXY $.D.U.u.w.p.y.w.h.*XlXOX'.{.].^.@X#X~.!. XQ.U.U.}.|.}.D.a.a.S.p.0.G | C.a.r.2.q.r.O.O.| ` ` L ",
"S _ w.G.f.oX+XF , d ) #.0.t.t.0.@.*XMXrXrXxXwXfXvXnX4XxXuXxXVXD.W U.9X*X#X@X#X;X.XT.8X=X#XW.P.=X~.oXoX~.~.!.D.k.I.Y.U.D.y.w.h.|.D.H.} z o.H.%.%.0.r.+.| o.` R L ",
"Z o.g.S.j.@X0.@ 3 m ` <.g.j.g.j.w.~ AXmX%XMX%XbXmXvXtXuXeXvXBXU u.=XlX$X%X%X*X+X9XL.@X*X=X!.Q.@X~.`.#X#X~.E.j.h.Q.|..XY.S.a.h.Q.g.Q.A.z b Z.e.1.1.t.:.+.O.T L L ",
"Z  .A.j.T.H.m % k _ 1.a.D.Q.,X.XI.X.tXZXuXNXwXmXVXuXuXtXuXxXj.~ =XlXyX6X8X6X#XOXOX~.6X$X6X~.~.~.~.~.oXoXQ.h.h.D.U.~.+X XL.a.w.a.w.S.I. .c o.Z.%.2.t.+.+.%.( L ( ",
"S _ a.D.T.[ & y S &.g.L.~.Q.^. X+X|.z.vXSXeXuXaXMXuXvX{.SXwXU ~.6X{.wXtX%X8XtX%X[.9X*X!.9XU.U.Q.!.!.~. XL.w.a.|.|.Y.|.U.D.g.a.S.D.t.H.F.F A Z.o.%.r.+.+.+.R (  .",
"n R o.}.B.5 3 p ' 0.w.g.~.E.m.&X XU.E.].NXnXwXvXfXuXtXAXNX6.6.BX6XkXlXlXyX3X4XtX8X*X`.#Xj.kXj..XoX XXX+XU.S.F. XU.U.U.S.G.G.C.C.T.G.0.H. .e ' &.1.2.X.O.' P ' ( ",
"f F o.$.F < , ( ' t.D.D.Q.Q.~.].+X~.Q.E.=XzX].tXtXtX&X%XE.w.^.kX*X#X$X=X%X%X6XtX!.$XlX@X*Xu..XQ.T.G.T.G.p.C.Y.}.U.I.U.h.p.w.p.a.A.t.A.a.e.F a _ %.%. .' ( ` ..R ",
"+ - 3 4 h y , ( &.t.,X,XQ. X].]. X}.Q.E.~.~.g.w.w.0.0.6.*.E.zXkXoX`.[.%X*X@XoX@X=Xv. X:X%.  Z _ ` J }  .Y %.}.}.Q.U.Q.D.q.0.k.A.t.A.A.e.&.h X , + : : ; 5 V ] _ ",
"- , 3 y [ #.A A t.A.j.D.Q.~.,X X!.E.Q.~.&X&XE.j.:X X~.,Xj.&XBX=X*X=XwXzXzX9X*X*X%X$X9X>X2 y e.B.H.Z.Z.e.{ +.S.G.U.D. X|.k.u.S.H.t.A.0.H.] : & 1 , 6 6 y a D ] ] ",
"% < 5 M R _ _ b o.A.,Xt.,X~.j.,X&XD.D.~.=XtX#X&X=X#XQ.~.~.~.].=X#X%X%XwXkXkX:X*X].%X:X} X #.V.H.Z.H.H.t.:.+.q.Q.G.g.Q.}.g.t.H.a.t.t.t.t.f + y y 5 y N k M M F ] ",
"& < 5 S _ ' V.%.F t.,Xt.m.,Xj.,X,Xk.,X&X%X=X].].tX%X~.].kX~.j.kX%X#X].].#X&X#X#X#X!.T.> B B.C.}.G.Q.U.S.A.+.+.S.Q.A.D.G.a.t.a.V.t.w.,XF + , 1 3 a f M Z M k M _ ",
"% 3 y M _ ] %.%._ ] A.t.g.,Xg.,Xg.w.&XzXkXuXwX%X%X#X~.~.=X XD.&X9X=X&X*X*X#X`.oX X-X_ = &.V.,Xt.t.D.A.A.t.%.o.+.H.H.H.G.D.t.t.t.t.V.e.7 % a u d N y M Z S M N _ ",
"& < N M ' o._ V.e.N _ t.0.+.&.t.w.t.&X:X&X&X&X&X=X:X:X&X&X:XE.E.~.~..X&X&X~.E.E..XZ.  F Z.%.D.D.D.A.Z.Z.V.e.%._ r.V.A.G.D.t.0.t.e.A.l @ < 3 3 d / B B B S M f Z ",
"% < y N _ ] ] &.&.o.@.+.+.+.t.0.%.o..X>X.X:X~.~.#X=X#X#X&X X XD.t.g.A.D.D.D.g.g.A.l & &.e.V.t.A.g.A.g.A.t.0.%.' ' 0.V.V.e.%.e.V.&._ % < < 5 y N S S Z S / N N f ",
"% < 5 N / ' ' &.,X,XD. X XQ.&X.XG.F t.&X,X X~.Q.~.=X#X#X&X X,XD.,X}. X.X&X.X X,X.XF + ] &.e.0.t.g.H.t.A.V.0.%.R o.e.0.%.o.R ' ' o.F % < < 5 N S S F S M S N N l "
};
