/* XPM */
static char *_eb1bbf7e45a4aeab8ae2df17f7875f2s8xSEnqzRZA9J3WG[] = {
/* columns rows colors chars-per-pixel */
"50 50 250 2 ",
"   c #020200",
".  c #0C0300",
"X  c #040B00",
"o  c #0D0B02",
"O  c #0B0D08",
"+  c #130D01",
"@  c #190D02",
"#  c #0D1302",
"$  c #0B150A",
"%  c #121403",
"&  c #1B1503",
"*  c #1C1C02",
"=  c #13140A",
"-  c #1C1B0C",
";  c #15180A",
":  c #141C13",
">  c #1C1D13",
",  c #171A15",
"<  c #0E1911",
"1  c #221C05",
"2  c #221B0C",
"3  c #291A07",
"4  c #221D12",
"5  c #2B1C13",
"6  c #321C08",
"7  c #1D220E",
"8  c #17230E",
"9  c #1C2213",
"0  c #1C241A",
"q  c #1C2B1B",
"w  c #162615",
"e  c #25240C",
"r  c #2B260B",
"t  c #38270B",
"y  c #242413",
"u  c #2A2314",
"i  c #2D2C14",
"p  c #23251B",
"a  c #2C251B",
"s  c #252A1C",
"d  c #2B2C1C",
"f  c #242914",
"g  c #332A14",
"h  c #3B2C13",
"j  c #342C1C",
"k  c #3B2C1C",
"l  c #352515",
"z  c #2C311D",
"x  c #23311E",
"c  c #34341D",
"v  c #3B331C",
"b  c #3A3618",
"n  c #1A2822",
"m  c #1C3122",
"M  c #252A22",
"N  c #2C2D23",
"B  c #272521",
"V  c #342D23",
"C  c #392D23",
"Z  c #2C3323",
"A  c #2B342B",
"S  c #263628",
"D  c #333324",
"F  c #3B3324",
"G  c #333924",
"H  c #3B3A24",
"J  c #33342A",
"K  c #3B352B",
"L  c #353B2B",
"P  c #3B3B2C",
"I  c #2B3B34",
"U  c #353B32",
"Y  c #3B3C32",
"T  c #422D19",
"R  c #43341C",
"E  c #473A1D",
"W  c #553E1E",
"Q  c #433C25",
"!  c #4B3C25",
"~  c #433C2B",
"^  c #4B3E2C",
"/  c #443627",
"(  c #533C2A",
")  c #443D32",
"_  c #4B3D33",
"`  c #433B37",
"'  c #513F31",
"]  c #3D422C",
"[  c #3A4227",
"{  c #3C4132",
"}  c #3D433A",
"|  c #374434",
" . c #2E4032",
".. c #47411F",
"X. c #444326",
"o. c #4B4423",
"O. c #44422C",
"+. c #4B442C",
"@. c #4C4A2D",
"#. c #4A4A27",
"$. c #53432D",
"%. c #51492E",
"&. c #59462B",
"*. c #434333",
"=. c #4C4334",
"-. c #444935",
";. c #4C4B34",
":. c #44443A",
">. c #4B4439",
",. c #464C3A",
"<. c #4B4B3B",
"1. c #524532",
"2. c #544C35",
"3. c #5C4B33",
"4. c #534C3C",
"5. c #5B4D3B",
"6. c #584636",
"7. c #4D513D",
"8. c #49503A",
"9. c #545135",
"0. c #54533C",
"q. c #5B533C",
"w. c #5B5739",
"e. c #5A522C",
"r. c #624D35",
"t. c #694F38",
"y. c #62533C",
"u. c #645A3D",
"i. c #69573A",
"p. c #77583C",
"a. c #624C2C",
"s. c #5D613E",
"d. c #6B623E",
"f. c #394A40",
"g. c #4B4D43",
"h. c #4B4942",
"j. c #534D42",
"k. c #574C43",
"l. c #4D5244",
"z. c #485249",
"x. c #545344",
"c. c #5B5443",
"v. c #545945",
"b. c #5C5B45",
"n. c #54554B",
"m. c #5B554B",
"M. c #54594B",
"N. c #5C5B4B",
"B. c #5A5D52",
"V. c #635442",
"C. c #635B44",
"Z. c #6B5B44",
"A. c #645D4A",
"S. c #6C5E4B",
"D. c #675546",
"F. c #755D44",
"G. c #635D51",
"H. c #6A5E54",
"J. c #5D614D",
"K. c #57604D",
"L. c #5D6353",
"P. c #5F6559",
"I. c #636245",
"U. c #64634B",
"Y. c #6B634C",
"T. c #6A6749",
"R. c #72634C",
"E. c #786649",
"W. c #636353",
"Q. c #6C6552",
"!. c #656955",
"~. c #6C6A54",
"^. c #656A5C",
"/. c #6C6B5C",
"(. c #67655B",
"). c #736452",
"_. c #736B54",
"`. c #7B6C53",
"'. c #756D5A",
"]. c #7C6D59",
"[. c #786656",
"{. c #6D715B",
"}. c #6F7152",
"|. c #7C7353",
" X c #74735C",
".X c #7B725D",
"XX c #7C7A5D",
"oX c #757455",
"OX c #6B6C62",
"+X c #6E7062",
"@X c #6E7468",
"#X c #767563",
"$X c #7B7461",
"%X c #757963",
"&X c #7C7A64",
"*X c #7D7C6A",
"=X c #737A6A",
"-X c #7B7C72",
";X c #756E64",
":X c #82694C",
">X c #836E55",
",X c #806F5B",
"<X c #84735A",
"1X c #837C5C",
"2X c #897A5C",
"3X c #867456",
"4X c #937858",
"5X c #827A62",
"6X c #8B7C64",
"7X c #847D6C",
"8X c #877969",
"9X c #937D62",
"0X c #82766E",
"qX c #7C8172",
"wX c #84816C",
"eX c #8C836C",
"rX c #888466",
"tX c #938669",
"yX c #848374",
"uX c #8A8573",
"iX c #8D8B73",
"pX c #898B7A",
"aX c #948C75",
"sX c #948A75",
"dX c #8A9079",
"fX c #9A947D",
"gX c #97947A",
"hX c #8E926F",
"jX c #A3967B",
"kX c #A89979",
"lX c #A98F74",
"zX c #949382",
"xX c #9A9A87",
"cX c #97978B",
"vX c #A29C84",
"bX c #A39A88",
"nX c #A49D95",
"mX c #9FA590",
"MX c #AAA48D",
"NX c #A8A488",
"BX c #B4A889",
"VX c #ABA797",
"CX c #B4AC97",
"ZX c #BCB59A",
"AX c #B9B7A8",
"SX c #B5B5AD",
"DX c #C4B69B",
"FX c #C5BAA8",
"GX c #CFC7B3",
"HX c #E1DEC5",
/* pixels */
"#XQ 1 v $.E &.p.4XlXp.t >XS.. 5 N 4 J H.m.l ( S.D.r.6.6 ( ( ( r.&.( D.6 l k.4 C q.@.Q b j F 1.D.K V ",
"- P 0.Y.3X2X:XE.4XE.&.>XDX5X. + . = K H.6.l 1.,XF.( t 6 ( T ( 6.6.T D.@ . _ >.F C.2.%.Q v k _ c.C j ",
"s L Y 0..X2X3XtX`.>X[.tXnX7Xm.Y V ` j.A.=.u ( S.r.r.6 T t.' F.D.t.( V./ 5 5 5 5 2.+.@.Q g j _ k.~ =.",
"A M ; Y OXQ.2.r.D.].Q.>.V P n.B (.OXm.k.^ j ! 3.' t.! 6 T ' t.T ( S.' / _ 5 . 4 2.X.o.Q k / k.k.a C ",
"n n < M M.L.*.j ) 5 ; N , , A   g.G.<.^ ~ k o.3.&.a.&.T T t.r.$.R >X/ k K G.j.j.;.g i r 1 g ~ a u V ",
"I n < A h.n.G.(.J O = K U A I , d x.4.=.+.h R 3.a.T T 3 @ t 3 T Y.3.^ H._ 0XbXuXqXI.A.w.~ ;.m.) ) 2.",
"I < n z.z.g.W.^.Y V Y J B n 0 , N A.A.A.D.Q E &.E 6 t e.&.|.tXfXeXl _ ;Xm.k.;X(.I.9.I.I.F ~ m.>.V ~ ",
"m n A A p l.(.Y V 4 B > > , O N P A.x.A..XZ.y.i.3XrX>XkXtXBXDXjX_.2 C 5 J . > 4 - e ;.9.1 g k.>.. & ",
"A A U J N D '.*.D K - 4 > = N d G.~.C.'..Xu.E 3XBXkXBXBXkXZXBX}.r 2 y & . + - P z e ;.c . ` H.V a - ",
"B   %     ;.7X2 4.=.2 F @ V C 5 *X7XuX7X1.v t Y.BXBXkXaX1XtXkXrX9.~ ~ J B p O - O.7 H c @ C >.` K u ",
"c *.>.v.G.F F ~ + c.+ 1 & @ . zXnXVX$XQ +.2.1 F.lXtX|.d.u.T.XXhX9.H F N J A > > v.e i G F >.h.` K s ",
"v.Q.A.*X#X#XAXzX4.'.) . & [.bXxXnX7X>.@ +.8Xh 5.aX>Xe.%.u.w.9.w.<.] *.L J U B d z z O.b e a C _ _ K ",
"~ P *.x.<./.zX7Xk.x.nXpXnXsX7X5 ;Xa k.>.C sXZ.h `.u.$.2.T.u.9.0.e z ] L M M > s z d H c j V B K m.g.",
"f % x.L.W.(.O :.g.p nXSXCX+ 4 k._ 4 >.k.k 0XQ.l Q o.%.%.+.+.9.0.] [ { N 0 M M Z G e z O.*.) K h.<.` ",
"J   n.+XB.SXqXn h.  -XVXm.B m.>.K K C V / $XS.1.! 2.C.@.e r H i ;.z 0 O < M w $ x ] {.I.j u ) (.B a ",
"y J U -XL.M.z., U = 0 B.B U B m.5 5 ) _ j ).$X5.g ! Z.2.u Q w.H H e d } =XcX=XM.dXdXxX/.<.G.m.` s 4 ",
"j D D W.N   O B B , U n.:.V a ~ K K C ) >.'.5X. k 1.c.).Z./ v 2.g C.I.7XqX~.%X^.qXqXL.-.4.gXB.D ) s ",
"& O.y M.Y Y , > B B B g.g.Y k.x.` K =.) F m.5.5 5 5.).S.V.3.! h g 2.oXY.G P K.^.%X{.] c G N.A.j.<.J ",
"2 D K N.B A Y I M } s :.>.D m.=.2 . a y 1 l 1 2 +.1.5.2.1.$.$.q.l ~ rXb.i ] ] Z  .v.| qXqX/.W.*.B.h.",
"+ & G.(.:.  <   O O   Z g.P <.4.<.~ q.k.c.c.=.4.=.v / ! R R Q 3./ b. Xa 7 O.8.8.z [ x J.!.W.g.*.M.n.",
"(.zXzX-XSX-XI Y :.p p N.wX!.;.U..XwX#X XA.4.C.c.'..XsX'.q.q.k 1 1 ~.*XH 8.,.,.,.| z 8 8 # Z Z n.M.n.",
"0XnX-X-XnXGX-X-XB.mXAXzXyXwXA.w.5XzXuX.X=.F '.'.$XC.6XeX.XeXsXjX$XpXW.; ] ] v.K.z z ] x $ Z S P.OX^.",
". O B :., OX<.0 0 yXxX=X%XwX'.0.b.A.~.U.v H $XeXzX2.)..Xy.q.R.MXxX~./.G v.L.v.G z z S S 9 Z | OX@X@X",
"B = B B = L s 9 s 7   K.VXXXC.0.U.~ Q.Y.;._.aXMXC.R  X$Xq.V.V.&XzXG +XP ] U.!.v.8.| # [ s 0 | n.P.L.",
">.k.C ` n.h.` B 8 {.v.mXmXi b g 9.@.O.9..X'.@.I.~ C..X.XQ.5XQ._.cX+XVXc.% 7.J.U.8.7 Z s $ 9 : A | Z ",
"h.h.B A A :.P 0 G [ gXdXi # 1 v X.;.;.#.~.rX2.i 2.I.1XeX_.'.V.'.#X,.pXpX-.G [ O.[ & % X % : w P.g.*.",
"` K ` m.:.M.-.] x #.AX!.  c v O.# X.I.#.9.XX}.9.2.w.Q..Xc.C.c.eXpX/.#X*XA.XXNXhXX.o c z = s U g.-X+X",
"` . Y n.<.*.z f # {.hX8.e f y ~ @.@.0.X.0.rXoX#.0.I..X X2.2.4.&XuX X0.H H ZXHXZXrXJ.%X0.f l.OXB.^.x.",
"m.+ D Z v.J.!.8.7.mXqX0.*.  + v.I.w.s.#.s.rXT.b I.XXiX&X2.q.4.Q.yXc.>.Q ..hXkXhXE.gXgXI.W.!.{ W.m._ ",
":.K A.O.N. XhX{.gXzX{.c u P _ 8.7.s.T.9.s.qXs.b b 9.C.9.v 0.b.$XbXeX&XU.b 3X:XrXe.w.tXhX*X<.; J K u ",
"a =.x.M.8.[ [ c hX{.!.,.G.AXAXqXhXT.#.[ }.XX..e T.&XdXfX7XsX7XfXwXxX.X9.e d.1XrX1Xb rXvX;.c L P F a ",
"~ K &  XoXK.c G % # % M.pXcXAXgXmXJ.b [ U.w.[  XrXxXFXHXVX#Xy & *.#X+.@.r r.|.i.i.t oXrXH z J K _ C ",
"5.5.5.A.yXpXM.- 9 M X L.cXK.v.] 9 q Y { { G ] pXpXVXmXpXz.< q  .S I > <.l 6.R.V.Q X.}.~.[ z L d ~ k ",
"r.V.6.^ Q.yXW.J 0 J 9 Z =Xv.#Xl.0 I } } Z P Z +XdXpXz.< 8  .|  .m I N P C 6.R.`.R X.}.}.Z q G c ~ k ",
"Z.[.1.j c.#XM.J p A Z = ^.7.zXW.9 } | } 0 { s l.L.z.m  .}  .m  .I I } D ) V.S.`.w.b ;.!.] y a f / C ",
"V.S.+.j x.G.*.0 s Z J 9 L.{ %X<.9 S I L M L L ,.| K.8.|  . . .m  .m } ` F S.`..XI.e i J.O.% 2 K ` K ",
"y.5.^ O.C.x.D - Z *.P d -.{ <.# 9 : s Z ] Z 8.7.v.K.[ q m S  .w m $ { v.+ 5.<XeXw.* 7 b 7 o a =.` C ",
"R.y.5.c.b.<.F f J M.,.J D N.7.  9 # q s ] 9 v.v.K.8.7 S  .w w q m 8 | L.. k Z.6X|.b r 7 & j _ a C V ",
"A.5.C.A.^ F P d *.W.x.P D /.G.# 9 0 Z s 8 # 7.v.v.{.] 8 8  .|  .m x G I.H R $.u.w.r * & + 2 5 . . . ",
"k v c.q.5 i ~ u A.W.b.>.P c.x.- 8 L ] z   X ;.9.U.K.[ [ [ x x f q x 7 b.eXy.! E w.9..XsXA._ D.).' ` ",
"+.r ~ _.g F ~ i Q.b.Q.) P g.A.f X y f f G O.;.U.dXXX[ % 8 Z w # X X o #.tXlXe.kX1X}.rXfXoX5.[.8X,X[.",
"j v g & 1 r X.Q.'.'._.D j 4.7X(.v.>.;. XxXMXvXNXVXMXrX@.c c [ ] ]  XeXDXDXDXkXBX|.#.o #.Q @ D.k.T t ",
"+ & +   1   . v v g & . j ;XzX#XzXwXeXfXMXCXkXhXI.rXhXrXqXXX%X%X{.gXhXkXkXHXDXkXE r #.s.l @ k ' ' ( ",
"b.D O.Y.5Xu.q.Z.<XbXAXDXGXGXSXVXsXsX7X'..XjXjXT.e.}.gXfXrXqX!.9.b.;.T ..a.:XrXd.|...d.@.v D.k.' l l ",
"dXwXQ.&X5XeX1XtXFXDXCXCXAXCXzX-XzXtX,XS.].kXjXi.2XaXkXgXI.+.H i C.Y.i.&.4Xa.:X3XrXw.#.#.v w.'.k k l ",
"H uXU.X.+.q.r v 3.y.1.j .   V ;XtX8X8X6X3X3X>XF.tX>X<X:X3.%.%.v 5.3X:X&.:XW :X3Xe.b XXoXF ~ ' _ 6.>.",
"% ~.#Xw.Y.Z.h h Z.R.Y.S.j >.D.H.1.S.8X9X<XE.E.4X3Xi.i.R.y.Z.D./ R.>XF.F.:Xa.tXd.d.8 hX}.c A.~ D.4 - ",
"v.c.#X_.I.1.e.h 5.Z.).Y.j m.G.g.' ,X9X<X9X9X>X:X:Xp.`.E.3.y.,X[.>XF.t.lX:Xa.E.e...r XX}.c 4.k.C C 4 ",
"S.^ A.[.V.$./ ! y.2.'.x.K a Y N.0.[.,XtX3X9X:Xp.t.p.:Xt.:XD.5 [.F.i.a.p.<XW E.u...#.}.I.T.A.A.H._ 2 ",
"5.F V.).5.1.! $.5.2.S.=.d - j./.2._.6XtX3X4Xp.p.p.:X:Xt.[.6.@ D.Z.F.r.t.3XE |.w.E #.3XQ._.D.A.Q.` 2 "
};
